<?xml version="1.0" encoding="UTF-8" standalone="no"?>
<!-- Created with Inkscape (http://www.inkscape.org/) -->

<svg
   version="1.1"
   id="svg1"
   width="666.66669"
   height="666.66669"
   viewBox="0 0 666.66669 666.66669"
   sodipodi:docname="5167170.ai"
   xmlns:inkscape="http://www.inkscape.org/namespaces/inkscape"
   xmlns:sodipodi="http://sodipodi.sourceforge.net/DTD/sodipodi-0.dtd"
   xmlns="http://www.w3.org/2000/svg"
   xmlns:svg="http://www.w3.org/2000/svg">
  <defs
     id="defs1">
    <clipPath
       clipPathUnits="userSpaceOnUse"
       id="clipPath2">
      <path
         d="M 22.9244,460.735 H 484.6 V 50.8086 H 22.9244 Z"
         transform="translate(-137.77311,-57.823904)"
         id="path2" />
    </clipPath>
    <clipPath
       clipPathUnits="userSpaceOnUse"
       id="clipPath4">
      <path
         d="M 0,500 H 500 V 0 H 0 Z"
         transform="matrix(1.3333333,0,0,-1.3333333,0,666.66667)"
         id="path4" />
    </clipPath>
    <clipPath
       clipPathUnits="userSpaceOnUse"
       id="clipPath5">
      <path
         d="M 27.5037,454.306 H 473.606 V 39.4143 H 27.5037 Z"
         transform="translate(-113.4264,-74.330699)"
         id="path5" />
    </clipPath>
    <clipPath
       clipPathUnits="userSpaceOnUse"
       id="clipPath7">
      <path
         d="M 0,500 H 500 V 0 H 0 Z"
         transform="matrix(1.3333333,0,0,-1.3333333,0,666.66667)"
         id="path7" />
    </clipPath>
    <clipPath
       clipPathUnits="userSpaceOnUse"
       id="clipPath9">
      <path
         d="M 0,500 H 500 V 0 H 0 Z"
         transform="translate(-188.73261,-390.53191)"
         id="path9" />
    </clipPath>
    <clipPath
       clipPathUnits="userSpaceOnUse"
       id="clipPath11">
      <path
         d="M 0,500 H 500 V 0 H 0 Z"
         transform="translate(-195.7482,-390.53191)"
         id="path11" />
    </clipPath>
    <clipPath
       clipPathUnits="userSpaceOnUse"
       id="clipPath13">
      <path
         d="M 0,500 H 500 V 0 H 0 Z"
         transform="translate(-78.420504,-322.61101)"
         id="path13" />
    </clipPath>
    <clipPath
       clipPathUnits="userSpaceOnUse"
       id="clipPath15">
      <path
         d="M 0,500 H 500 V 0 H 0 Z"
         transform="translate(-120.0846,-333.99241)"
         id="path15" />
    </clipPath>
    <clipPath
       clipPathUnits="userSpaceOnUse"
       id="clipPath17">
      <path
         d="M 0,500 H 500 V 0 H 0 Z"
         transform="translate(-116.04021,-333.30491)"
         id="path17" />
    </clipPath>
    <clipPath
       clipPathUnits="userSpaceOnUse"
       id="clipPath19">
      <path
         d="M 0,500 H 500 V 0 H 0 Z"
         transform="translate(-458.73891,-383.88981)"
         id="path19" />
    </clipPath>
    <clipPath
       clipPathUnits="userSpaceOnUse"
       id="clipPath21">
      <path
         d="M 0,500 H 500 V 0 H 0 Z"
         transform="translate(-464.32871,-381.94451)"
         id="path21" />
    </clipPath>
    <clipPath
       clipPathUnits="userSpaceOnUse"
       id="clipPath23">
      <path
         d="M 0,500 H 500 V 0 H 0 Z"
         transform="translate(-427.24571,-350.26731)"
         id="path23" />
    </clipPath>
    <clipPath
       clipPathUnits="userSpaceOnUse"
       id="clipPath25">
      <path
         d="M 0,500 H 500 V 0 H 0 Z"
         transform="translate(-388.36881,-357.88351)"
         id="path25" />
    </clipPath>
    <clipPath
       clipPathUnits="userSpaceOnUse"
       id="clipPath27">
      <path
         d="M 0,500 H 500 V 0 H 0 Z"
         transform="translate(-384.95571,-358.45721)"
         id="path27" />
    </clipPath>
    <clipPath
       clipPathUnits="userSpaceOnUse"
       id="clipPath29">
      <path
         d="M 0,500 H 500 V 0 H 0 Z"
         transform="translate(-212.09731,-343.21261)"
         id="path29" />
    </clipPath>
    <clipPath
       clipPathUnits="userSpaceOnUse"
       id="clipPath31">
      <path
         d="M 0,500 H 500 V 0 H 0 Z"
         transform="translate(-207.51721,-344.20871)"
         id="path31" />
    </clipPath>
    <clipPath
       clipPathUnits="userSpaceOnUse"
       id="clipPath33">
      <path
         d="M 0,500 H 500 V 0 H 0 Z"
         transform="translate(-257.5153,-282.01431)"
         id="path33" />
    </clipPath>
    <clipPath
       clipPathUnits="userSpaceOnUse"
       id="clipPath35">
      <path
         d="M 0,500 H 500 V 0 H 0 Z"
         transform="translate(-259.49181,-295.4709)"
         id="path35" />
    </clipPath>
    <clipPath
       clipPathUnits="userSpaceOnUse"
       id="clipPath37">
      <path
         d="M 0,500 H 500 V 0 H 0 Z"
         transform="translate(-257.11881,-295.46111)"
         id="path37" />
    </clipPath>
    <clipPath
       clipPathUnits="userSpaceOnUse"
       id="clipPath38">
      <path
         d="M 26.3122,481.999 H 471.871 V 208.072 H 26.3122 Z"
         transform="translate(-462.30241,-265.37231)"
         id="path38" />
    </clipPath>
    <clipPath
       clipPathUnits="userSpaceOnUse"
       id="clipPath39">
      <path
         d="M 26.3122,481.999 H 471.871 V 208.072 H 26.3122 Z"
         transform="translate(-57.656401,-208.77801)"
         id="path39" />
    </clipPath>
    <clipPath
       clipPathUnits="userSpaceOnUse"
       id="clipPath40">
      <path
         d="M 26.3122,481.999 H 471.871 V 208.072 H 26.3122 Z"
         transform="translate(-260.902,-427.43621)"
         id="path40" />
    </clipPath>
    <clipPath
       clipPathUnits="userSpaceOnUse"
       id="clipPath41">
      <path
         d="M 26.3122,481.999 H 471.871 V 208.072 H 26.3122 Z"
         transform="translate(-230.93571,-388.31611)"
         id="path41" />
    </clipPath>
    <clipPath
       clipPathUnits="userSpaceOnUse"
       id="clipPath42">
      <path
         d="M 26.3122,481.999 H 471.871 V 208.072 H 26.3122 Z"
         transform="translate(-291.01431,-390.36641)"
         id="path42" />
    </clipPath>
    <clipPath
       clipPathUnits="userSpaceOnUse"
       id="clipPath43">
      <path
         d="M 26.3122,481.999 H 471.871 V 208.072 H 26.3122 Z"
         transform="translate(-432.03771,-216.67841)"
         id="path43" />
    </clipPath>
    <clipPath
       clipPathUnits="userSpaceOnUse"
       id="clipPath44">
      <path
         d="M 26.3122,481.999 H 471.871 V 208.072 H 26.3122 Z"
         transform="translate(-62.065601,-268.56561)"
         id="path44" />
    </clipPath>
    <clipPath
       clipPathUnits="userSpaceOnUse"
       id="clipPath52">
      <path
         d="M 0,500 H 500 V 0 H 0 Z"
         transform="matrix(1.3333333,0,0,-1.3333333,0,666.66667)"
         id="path52" />
    </clipPath>
    <clipPath
       clipPathUnits="userSpaceOnUse"
       id="clipPath54">
      <path
         d="M 0,500 H 500 V 0 H 0 Z"
         transform="translate(-266.88931,3.0250001e-4)"
         id="path54" />
    </clipPath>
    <clipPath
       clipPathUnits="userSpaceOnUse"
       id="clipPath56">
      <path
         d="M 0,500 H 500 V 0 H 0 Z"
         transform="translate(-286.93131,-81.9597)"
         id="path56" />
    </clipPath>
    <clipPath
       clipPathUnits="userSpaceOnUse"
       id="clipPath58">
      <path
         d="M 0,500 H 500 V 0 H 0 Z"
         transform="translate(-400.93911,-178.8708)"
         id="path58" />
    </clipPath>
    <clipPath
       clipPathUnits="userSpaceOnUse"
       id="clipPath60">
      <path
         d="M 0,500 H 500 V 0 H 0 Z"
         transform="translate(-456.13441,-126.8483)"
         id="path60" />
    </clipPath>
    <clipPath
       clipPathUnits="userSpaceOnUse"
       id="clipPath61">
      <path
         d="m 456.134,126.848 c -2.408,18.236 -41.325,42.329 -55.195,52.023 l -43.702,-43.836 -17.071,40.108 C 327.037,168.09 305.989,154.749 301.01,139.537 293.643,117.026 295.922,0 295.922,0 h 146.296 c 0,0 1.638,35.166 1.638,50.31 0,15.144 15.144,54.846 12.278,76.538"
         transform="translate(-435.35611,-198.4401)"
         id="path61" />
    </clipPath>
    <clipPath
       clipPathUnits="userSpaceOnUse"
       id="clipPath62">
      <path
         d="m 456.134,126.848 c -2.408,18.236 -41.325,42.329 -55.195,52.023 l -43.702,-43.836 -17.071,40.108 C 327.037,168.09 305.989,154.749 301.01,139.537 293.643,117.026 295.922,0 295.922,0 h 146.296 c 0,0 1.638,35.166 1.638,50.31 0,15.144 15.144,54.846 12.278,76.538"
         transform="translate(-406.59831,-198.4401)"
         id="path62" />
    </clipPath>
    <clipPath
       clipPathUnits="userSpaceOnUse"
       id="clipPath63">
      <path
         d="m 456.134,126.848 c -2.408,18.236 -41.325,42.329 -55.195,52.023 l -43.702,-43.836 -17.071,40.108 C 327.037,168.09 305.989,154.749 301.01,139.537 293.643,117.026 295.922,0 295.922,0 h 146.296 c 0,0 1.638,35.166 1.638,50.31 0,15.144 15.144,54.846 12.278,76.538"
         transform="translate(-377.83951,-198.4401)"
         id="path63" />
    </clipPath>
    <clipPath
       clipPathUnits="userSpaceOnUse"
       id="clipPath64">
      <path
         d="m 456.134,126.848 c -2.408,18.236 -41.325,42.329 -55.195,52.023 l -43.702,-43.836 -17.071,40.108 C 327.037,168.09 305.989,154.749 301.01,139.537 293.643,117.026 295.922,0 295.922,0 h 146.296 c 0,0 1.638,35.166 1.638,50.31 0,15.144 15.144,54.846 12.278,76.538"
         transform="translate(-349.08171,-198.4401)"
         id="path64" />
    </clipPath>
    <clipPath
       clipPathUnits="userSpaceOnUse"
       id="clipPath65">
      <path
         d="m 456.134,126.848 c -2.408,18.236 -41.325,42.329 -55.195,52.023 l -43.702,-43.836 -17.071,40.108 C 327.037,168.09 305.989,154.749 301.01,139.537 293.643,117.026 295.922,0 295.922,0 h 146.296 c 0,0 1.638,35.166 1.638,50.31 0,15.144 15.144,54.846 12.278,76.538"
         transform="translate(-320.32391,-198.4401)"
         id="path65" />
    </clipPath>
    <clipPath
       clipPathUnits="userSpaceOnUse"
       id="clipPath66">
      <path
         d="m 456.134,126.848 c -2.408,18.236 -41.325,42.329 -55.195,52.023 l -43.702,-43.836 -17.071,40.108 C 327.037,168.09 305.989,154.749 301.01,139.537 293.643,117.026 295.922,0 295.922,0 h 146.296 c 0,0 1.638,35.166 1.638,50.31 0,15.144 15.144,54.846 12.278,76.538"
         transform="translate(-282.5914,-157.4841)"
         id="path66" />
    </clipPath>
    <clipPath
       clipPathUnits="userSpaceOnUse"
       id="clipPath67">
      <path
         d="m 456.134,126.848 c -2.408,18.236 -41.325,42.329 -55.195,52.023 l -43.702,-43.836 -17.071,40.108 C 327.037,168.09 305.989,154.749 301.01,139.537 293.643,117.026 295.922,0 295.922,0 h 146.296 c 0,0 1.638,35.166 1.638,50.31 0,15.144 15.144,54.846 12.278,76.538"
         transform="translate(-282.5914,-136.6647)"
         id="path67" />
    </clipPath>
    <clipPath
       clipPathUnits="userSpaceOnUse"
       id="clipPath68">
      <path
         d="m 456.134,126.848 c -2.408,18.236 -41.325,42.329 -55.195,52.023 l -43.702,-43.836 -17.071,40.108 C 327.037,168.09 305.989,154.749 301.01,139.537 293.643,117.026 295.922,0 295.922,0 h 146.296 c 0,0 1.638,35.166 1.638,50.31 0,15.144 15.144,54.846 12.278,76.538"
         transform="translate(-282.5914,-115.84541)"
         id="path68" />
    </clipPath>
    <clipPath
       clipPathUnits="userSpaceOnUse"
       id="clipPath69">
      <path
         d="m 456.134,126.848 c -2.408,18.236 -41.325,42.329 -55.195,52.023 l -43.702,-43.836 -17.071,40.108 C 327.037,168.09 305.989,154.749 301.01,139.537 293.643,117.026 295.922,0 295.922,0 h 146.296 c 0,0 1.638,35.166 1.638,50.31 0,15.144 15.144,54.846 12.278,76.538"
         transform="translate(-282.5914,-95.026102)"
         id="path69" />
    </clipPath>
    <clipPath
       clipPathUnits="userSpaceOnUse"
       id="clipPath70">
      <path
         d="m 456.134,126.848 c -2.408,18.236 -41.325,42.329 -55.195,52.023 l -43.702,-43.836 -17.071,40.108 C 327.037,168.09 305.989,154.749 301.01,139.537 293.643,117.026 295.922,0 295.922,0 h 146.296 c 0,0 1.638,35.166 1.638,50.31 0,15.144 15.144,54.846 12.278,76.538"
         transform="translate(-282.5914,-74.206702)"
         id="path70" />
    </clipPath>
    <clipPath
       clipPathUnits="userSpaceOnUse"
       id="clipPath71">
      <path
         d="m 456.134,126.848 c -2.408,18.236 -41.325,42.329 -55.195,52.023 l -43.702,-43.836 -17.071,40.108 C 327.037,168.09 305.989,154.749 301.01,139.537 293.643,117.026 295.922,0 295.922,0 h 146.296 c 0,0 1.638,35.166 1.638,50.31 0,15.144 15.144,54.846 12.278,76.538"
         transform="translate(-282.5914,-53.387399)"
         id="path71" />
    </clipPath>
    <clipPath
       clipPathUnits="userSpaceOnUse"
       id="clipPath72">
      <path
         d="m 456.134,126.848 c -2.408,18.236 -41.325,42.329 -55.195,52.023 l -43.702,-43.836 -17.071,40.108 C 327.037,168.09 305.989,154.749 301.01,139.537 293.643,117.026 295.922,0 295.922,0 h 146.296 c 0,0 1.638,35.166 1.638,50.31 0,15.144 15.144,54.846 12.278,76.538"
         transform="translate(-282.5914,-32.568103)"
         id="path72" />
    </clipPath>
    <clipPath
       clipPathUnits="userSpaceOnUse"
       id="clipPath73">
      <path
         d="m 456.134,126.848 c -2.408,18.236 -41.325,42.329 -55.195,52.023 l -43.702,-43.836 -17.071,40.108 C 327.037,168.09 305.989,154.749 301.01,139.537 293.643,117.026 295.922,0 295.922,0 h 146.296 c 0,0 1.638,35.166 1.638,50.31 0,15.144 15.144,54.846 12.278,76.538"
         transform="translate(-282.5914,-11.748703)"
         id="path73" />
    </clipPath>
    <clipPath
       clipPathUnits="userSpaceOnUse"
       id="clipPath87">
      <path
         d="M 0,500 H 500 V 0 H 0 Z"
         transform="matrix(1.3333333,0,0,-1.3333333,0,666.66667)"
         id="path87" />
    </clipPath>
    <clipPath
       clipPathUnits="userSpaceOnUse"
       id="clipPath89">
      <path
         d="M 0,500 H 500 V 0 H 0 Z"
         transform="translate(-392.25161,-238.51821)"
         id="path89" />
    </clipPath>
    <clipPath
       clipPathUnits="userSpaceOnUse"
       id="clipPath91">
      <path
         d="M 0,500 H 500 V 0 H 0 Z"
         transform="translate(-383.96451,-322.74531)"
         id="path91" />
    </clipPath>
    <clipPath
       clipPathUnits="userSpaceOnUse"
       id="clipPath93">
      <path
         d="M 0,500 H 500 V 0 H 0 Z"
         transform="translate(-414.88541,-243.13151)"
         id="path93" />
    </clipPath>
    <clipPath
       clipPathUnits="userSpaceOnUse"
       id="clipPath94">
      <path
         d="m 396.287,253.146 h 16.745 v -22.624 h -16.745 z"
         transform="translate(-396.28771,-231.09051)"
         id="path94" />
    </clipPath>
    <clipPath
       clipPathUnits="userSpaceOnUse"
       id="clipPath96">
      <path
         d="M 0,500 H 500 V 0 H 0 Z"
         transform="matrix(1.3333333,0,0,-1.3333333,0,666.66667)"
         id="path96" />
    </clipPath>
    <clipPath
       clipPathUnits="userSpaceOnUse"
       id="clipPath98">
      <path
         d="M 0,500 H 500 V 0 H 0 Z"
         transform="translate(-413.03191,-247.19891)"
         id="path98" />
    </clipPath>
    <clipPath
       clipPathUnits="userSpaceOnUse"
       id="clipPath100">
      <path
         d="M 0,500 H 500 V 0 H 0 Z"
         transform="translate(-351.18621,-192.528)"
         id="path100" />
    </clipPath>
    <clipPath
       clipPathUnits="userSpaceOnUse"
       id="clipPath102">
      <path
         d="M 0,500 H 500 V 0 H 0 Z"
         transform="translate(-330.54461,-255.26871)"
         id="path102" />
    </clipPath>
    <clipPath
       clipPathUnits="userSpaceOnUse"
       id="clipPath104">
      <path
         d="M 0,500 H 500 V 0 H 0 Z"
         transform="translate(-362.54851,-248.67941)"
         id="path104" />
    </clipPath>
    <clipPath
       clipPathUnits="userSpaceOnUse"
       id="clipPath106">
      <path
         d="M 0,500 H 500 V 0 H 0 Z"
         transform="translate(-343.35511,-256.7394)"
         id="path106" />
    </clipPath>
    <clipPath
       clipPathUnits="userSpaceOnUse"
       id="clipPath108">
      <path
         d="M 0,500 H 500 V 0 H 0 Z"
         transform="translate(-339.67831,-277.6701)"
         id="path108" />
    </clipPath>
    <clipPath
       clipPathUnits="userSpaceOnUse"
       id="clipPath110">
      <path
         d="M 0,500 H 500 V 0 H 0 Z"
         transform="translate(-373.68231,-258.49041)"
         id="path110" />
    </clipPath>
    <clipPath
       clipPathUnits="userSpaceOnUse"
       id="clipPath112">
      <path
         d="M 0,500 H 500 V 0 H 0 Z"
         transform="translate(-338.02601,-214.4841)"
         id="path112" />
    </clipPath>
    <clipPath
       clipPathUnits="userSpaceOnUse"
       id="clipPath114">
      <path
         d="M 0,500 H 500 V 0 H 0 Z"
         transform="translate(-342.83951,-212.65301)"
         id="path114" />
    </clipPath>
    <clipPath
       clipPathUnits="userSpaceOnUse"
       id="clipPath116">
      <path
         d="M 0,500 H 500 V 0 H 0 Z"
         transform="translate(-386.68421,-92.068102)"
         id="path116" />
    </clipPath>
    <clipPath
       clipPathUnits="userSpaceOnUse"
       id="clipPath118">
      <path
         d="M 0,500 H 500 V 0 H 0 Z"
         transform="translate(-380.36781,-83.660805)"
         id="path118" />
    </clipPath>
    <clipPath
       clipPathUnits="userSpaceOnUse"
       id="clipPath120">
      <path
         d="M 0,500 H 500 V 0 H 0 Z"
         transform="translate(-444.83461,-71.015302)"
         id="path120" />
    </clipPath>
    <clipPath
       clipPathUnits="userSpaceOnUse"
       id="clipPath122">
      <path
         d="M 0,500 H 500 V 0 H 0 Z"
         transform="translate(-371.08361,-77.826802)"
         id="path122" />
    </clipPath>
    <clipPath
       clipPathUnits="userSpaceOnUse"
       id="clipPath124">
      <path
         d="M 0,500 H 500 V 0 H 0 Z"
         transform="translate(-237.2965,-163.7429)"
         id="path124" />
    </clipPath>
    <clipPath
       clipPathUnits="userSpaceOnUse"
       id="clipPath126">
      <path
         d="M 0,500 H 500 V 0 H 0 Z"
         transform="translate(-239.78091,-176.3522)"
         id="path126" />
    </clipPath>
    <clipPath
       clipPathUnits="userSpaceOnUse"
       id="clipPath128">
      <path
         d="M 0,500 H 500 V 0 H 0 Z"
         transform="translate(-244.8478,-181.3161)"
         id="path128" />
    </clipPath>
    <clipPath
       clipPathUnits="userSpaceOnUse"
       id="clipPath130">
      <path
         d="M 0,500 H 500 V 0 H 0 Z"
         transform="translate(-297.05331,-107.2712)"
         id="path130" />
    </clipPath>
    <clipPath
       clipPathUnits="userSpaceOnUse"
       id="clipPath132">
      <path
         d="M 0,500 H 500 V 0 H 0 Z"
         transform="translate(-406.51721,-175.0583)"
         id="path132" />
    </clipPath>
    <clipPath
       clipPathUnits="userSpaceOnUse"
       id="clipPath133">
      <path
         d="m 323.905,324.077 h 90.934 v -45.544 h -90.934 z"
         transform="translate(-323.90491,-299.4333)"
         id="path133" />
    </clipPath>
    <clipPath
       clipPathUnits="userSpaceOnUse"
       id="clipPath134">
      <path
         d="m 323.905,324.077 h 90.934 v -45.544 h -90.934 z"
         transform="translate(-398.62951,-316.58421)"
         id="path134" />
    </clipPath>
    <clipPath
       clipPathUnits="userSpaceOnUse"
       id="clipPath135">
      <path
         d="m 323.905,324.077 h 90.934 v -45.544 h -90.934 z"
         transform="translate(-405.10901,-309.91911)"
         id="path135" />
    </clipPath>
    <clipPath
       clipPathUnits="userSpaceOnUse"
       id="clipPath136">
      <path
         d="m 323.905,324.077 h 90.934 v -45.544 h -90.934 z"
         transform="translate(-369.94011,-324.07681)"
         id="path136" />
    </clipPath>
    <clipPath
       clipPathUnits="userSpaceOnUse"
       id="clipPath141">
      <path
         d="M 0,500 H 500 V 0 H 0 Z"
         transform="matrix(1.3333333,0,0,-1.3333333,0,666.66667)"
         id="path141" />
    </clipPath>
    <clipPath
       clipPathUnits="userSpaceOnUse"
       id="clipPath143">
      <path
         d="M 0,500 H 500 V 0 H 0 Z"
         transform="translate(-242.71641,-46.589504)"
         id="path143" />
    </clipPath>
    <clipPath
       clipPathUnits="userSpaceOnUse"
       id="clipPath145">
      <path
         d="M 0,500 H 500 V 0 H 0 Z"
         transform="translate(-255.8395,3.0250001e-4)"
         id="path145" />
    </clipPath>
    <clipPath
       clipPathUnits="userSpaceOnUse"
       id="clipPath147">
      <path
         d="M 0,500 H 500 V 0 H 0 Z"
         transform="translate(-168.1632,-150.4557)"
         id="path147" />
    </clipPath>
    <clipPath
       clipPathUnits="userSpaceOnUse"
       id="clipPath149">
      <path
         d="M 0,500 H 500 V 0 H 0 Z"
         transform="translate(-168.1632,-150.4557)"
         id="path149" />
    </clipPath>
    <clipPath
       clipPathUnits="userSpaceOnUse"
       id="clipPath151">
      <path
         d="M 0,500 H 500 V 0 H 0 Z"
         transform="translate(-107.8419,-271.89761)"
         id="path151" />
    </clipPath>
    <clipPath
       clipPathUnits="userSpaceOnUse"
       id="clipPath153">
      <path
         d="M 0,500 H 500 V 0 H 0 Z"
         transform="translate(-114.24771,-212.3337)"
         id="path153" />
    </clipPath>
    <clipPath
       clipPathUnits="userSpaceOnUse"
       id="clipPath154">
      <path
         d="m 116.101,222.349 h 16.745 v -22.625 h -16.745 z"
         transform="translate(-132.8454,-200.29361)"
         id="path154" />
    </clipPath>
    <clipPath
       clipPathUnits="userSpaceOnUse"
       id="clipPath156">
      <path
         d="M 0,500 H 500 V 0 H 0 Z"
         transform="matrix(1.3333333,0,0,-1.3333333,0,666.66667)"
         id="path156" />
    </clipPath>
    <clipPath
       clipPathUnits="userSpaceOnUse"
       id="clipPath158">
      <path
         d="M 0,500 H 500 V 0 H 0 Z"
         transform="translate(-116.1007,-216.4011)"
         id="path158" />
    </clipPath>
    <clipPath
       clipPathUnits="userSpaceOnUse"
       id="clipPath160">
      <path
         d="M 0,500 H 500 V 0 H 0 Z"
         transform="translate(-180.1681,-243.73311)"
         id="path160" />
    </clipPath>
    <clipPath
       clipPathUnits="userSpaceOnUse"
       id="clipPath162">
      <path
         d="M 0,500 H 500 V 0 H 0 Z"
         transform="translate(-167.14611,-230.5944)"
         id="path162" />
    </clipPath>
    <clipPath
       clipPathUnits="userSpaceOnUse"
       id="clipPath164">
      <path
         d="M 0,500 H 500 V 0 H 0 Z"
         transform="translate(-195.86001,-234.11201)"
         id="path164" />
    </clipPath>
    <clipPath
       clipPathUnits="userSpaceOnUse"
       id="clipPath166">
      <path
         d="M 0,500 H 500 V 0 H 0 Z"
         transform="translate(-147.4342,-238.45571)"
         id="path166" />
    </clipPath>
    <clipPath
       clipPathUnits="userSpaceOnUse"
       id="clipPath168">
      <path
         d="M 0,500 H 500 V 0 H 0 Z"
         transform="translate(-199.3537,-244.67841)"
         id="path168" />
    </clipPath>
    <clipPath
       clipPathUnits="userSpaceOnUse"
       id="clipPath170">
      <path
         d="M 0,500 H 500 V 0 H 0 Z"
         transform="translate(-185.18811,-197.81021)"
         id="path170" />
    </clipPath>
    <clipPath
       clipPathUnits="userSpaceOnUse"
       id="clipPath172">
      <path
         d="M 0,500 H 500 V 0 H 0 Z"
         transform="translate(-180.3751,-195.9792)"
         id="path172" />
    </clipPath>
    <clipPath
       clipPathUnits="userSpaceOnUse"
       id="clipPath174">
      <path
         d="M 0,500 H 500 V 0 H 0 Z"
         transform="translate(-127.9708,-76.487999)"
         id="path174" />
    </clipPath>
    <clipPath
       clipPathUnits="userSpaceOnUse"
       id="clipPath176">
      <path
         d="M 0,500 H 500 V 0 H 0 Z"
         transform="translate(-155.4787,-149.56901)"
         id="path176" />
    </clipPath>
    <clipPath
       clipPathUnits="userSpaceOnUse"
       id="clipPath178">
      <path
         d="M 0,500 H 500 V 0 H 0 Z"
         transform="translate(-206.33851,-171.5573)"
         id="path178" />
    </clipPath>
    <clipPath
       clipPathUnits="userSpaceOnUse"
       id="clipPath180">
      <path
         d="M 0,500 H 500 V 0 H 0 Z"
         transform="translate(-191.173,-161.32391)"
         id="path180" />
    </clipPath>
    <clipPath
       clipPathUnits="userSpaceOnUse"
       id="clipPath182">
      <path
         d="M 0,500 H 500 V 0 H 0 Z"
         transform="translate(-191.93031,-154.2321)"
         id="path182" />
    </clipPath>
    <clipPath
       clipPathUnits="userSpaceOnUse"
       id="clipPath184">
      <path
         d="M 0,500 H 500 V 0 H 0 Z"
         transform="translate(-201.03871,-146.09441)"
         id="path184" />
    </clipPath>
    <clipPath
       clipPathUnits="userSpaceOnUse"
       id="clipPath186">
      <path
         d="M 0,500 H 500 V 0 H 0 Z"
         transform="translate(-143.87031,-62.574899)"
         id="path186" />
    </clipPath>
    <clipPath
       clipPathUnits="userSpaceOnUse"
       id="clipPath188">
      <path
         d="M 0,500 H 500 V 0 H 0 Z"
         transform="translate(-128.97381,-75.226304)"
         id="path188" />
    </clipPath>
    <clipPath
       clipPathUnits="userSpaceOnUse"
       id="clipPath190">
      <path
         d="M 0,500 H 500 V 0 H 0 Z"
         transform="translate(-112.3507,-39.039703)"
         id="path190" />
    </clipPath>
    <clipPath
       clipPathUnits="userSpaceOnUse"
       id="clipPath192">
      <path
         d="M 0,500 H 500 V 0 H 0 Z"
         transform="translate(-216.7633,-40.980201)"
         id="path192" />
    </clipPath>
    <clipPath
       clipPathUnits="userSpaceOnUse"
       id="clipPath193">
      <path
         d="M 91.4922,305.17 H 208.007 V 221.117 H 91.4922 Z"
         transform="translate(-108.2887,-276.7707)"
         id="path193" />
    </clipPath>
    <clipPath
       clipPathUnits="userSpaceOnUse"
       id="clipPath194">
      <path
         d="M 91.4922,305.17 H 208.007 V 221.117 H 91.4922 Z"
         transform="translate(-207.7921,-280.44941)"
         id="path194" />
    </clipPath>
    <clipPath
       clipPathUnits="userSpaceOnUse"
       id="clipPath195">
      <path
         d="M 91.4922,305.17 H 208.007 V 221.117 H 91.4922 Z"
         transform="translate(-171.1696,-305.17011)"
         id="path195" />
    </clipPath>
    <clipPath
       clipPathUnits="userSpaceOnUse"
       id="clipPath196">
      <path
         d="M 91.4922,305.17 H 208.007 V 221.117 H 91.4922 Z"
         transform="translate(-119.0758,-257.21111)"
         id="path196" />
    </clipPath>
    <clipPath
       clipPathUnits="userSpaceOnUse"
       id="clipPath197">
      <path
         d="M 91.4922,305.17 H 208.007 V 221.117 H 91.4922 Z"
         transform="translate(-106.2174,-262.52361)"
         id="path197" />
    </clipPath>
    <clipPath
       clipPathUnits="userSpaceOnUse"
       id="clipPath203">
      <path
         d="M 0,500 H 500 V 0 H 0 Z"
         transform="matrix(1.3333333,0,0,-1.3333333,0,666.66667)"
         id="path203" />
    </clipPath>
  </defs>
  <sodipodi:namedview
     id="namedview1"
     pagecolor="#ffffff"
     bordercolor="#000000"
     borderopacity="0.25"
     inkscape:showpageshadow="2"
     inkscape:pageopacity="0.0"
     inkscape:pagecheckerboard="0"
     inkscape:deskcolor="#d1d1d1" />
  <g
     id="layer-MC0"
     inkscape:groupmode="layer"
     inkscape:label="BACKGROUND">
    <path
       id="path1"
       d="M 0,0 H 500 V 500 H 0 Z"
       style="fill:#ffffff;fill-opacity:1;fill-rule:nonzero;stroke:none"
       transform="matrix(1.3333333,0,0,-1.3333333,0,666.66667)" />
    <g
       opacity="0.300003"
       id="g3"
       clip-path="url(#clipPath4)">
      <path
         d="m 0,0 c 21.311,0.235 41.815,7.337 62.75,11.2 25.055,4.623 51.021,4.58 76.061,-0.124 26.548,-4.988 52.091,-15.153 79.053,-17.209 45.039,-3.435 81.085,17.992 106.503,54.114 25.418,36.122 29.08,85.539 9.247,124.796 -6.75,13.363 -15.952,25.515 -21.992,39.193 -19.81,44.864 13.256,117.209 -17.042,156.212 -16.515,21.26 -44.291,32.472 -71.736,34.072 -27.447,1.6 -54.713,-11.434 -80.353,-21.039 -24.725,-9.264 -57.829,-30.548 -83.783,-25.292 -18.07,3.659 -33.326,15.271 -50.846,20.897 -37.288,11.973 -80.509,-6.62 -102.337,-38.213 -21.828,-31.592 -24.382,-73.07 -13.842,-109.674 6.336,-22.001 17.132,-43.331 17.198,-66.17 0.043,-14.992 -4.578,-29.578 -7.071,-44.374 C -107.855,61.03 -62.677,-0.69 0,0 Z"
         style="fill:none;stroke:#2c54ac;stroke-width:1.045;stroke-linecap:butt;stroke-linejoin:miter;stroke-miterlimit:10;stroke-dasharray:4.317, 4.317;stroke-dashoffset:0;stroke-opacity:1"
         transform="matrix(1.3333333,0,0,-1.3333333,183.69747,589.56813)"
         clip-path="url(#clipPath2)"
         id="path3" />
    </g>
    <g
       opacity="0.300003"
       id="g6"
       clip-path="url(#clipPath7)">
      <path
         d="m 0,0 c 21.166,-2.41 42.442,2.091 63.716,3.325 25.462,1.478 51.208,-1.784 75.417,-9.555 25.668,-8.24 49.652,-21.488 76.119,-26.871 44.212,-8.993 82.718,16.675 112.716,49.346 29.998,32.671 40.181,81.226 25.719,122.618 -4.923,14.09 -12.438,27.283 -16.614,41.597 -13.697,46.951 25.832,95.665 5.408,140.512 -11.112,24.402 -34.104,40.356 -61.111,45.347 -27.008,4.991 -63.982,1.396 -90.683,-4.951 -25.75,-6.12 -60.226,-24.095 -85.269,-15.665 -17.435,5.87 -31.025,19.278 -47.655,27.03 -35.392,16.499 -80.721,3.419 -106.558,-25.205 -25.838,-28.625 -33.871,-69.444 -28.271,-107.052 3.366,-22.606 11.244,-45.1 8.281,-67.757 -1.944,-14.873 -8.462,-28.767 -12.896,-43.131 C -98.872,73.902 -62.252,7.088 0,0"
         style="fill:#9ddcf9;fill-opacity:1;fill-rule:nonzero;stroke:none"
         transform="matrix(1.3333333,0,0,-1.3333333,151.2352,567.55907)"
         clip-path="url(#clipPath5)"
         id="path6" />
    </g>
  </g>
  <g
     id="layer-MC1"
     inkscape:groupmode="layer"
     inkscape:label="OBJECTS">
    <path
       id="path8"
       d="m 0,0 c 0,-43.889 -35.579,-79.468 -79.468,-79.468 -43.888,0 -79.468,35.579 -79.468,79.468 0,43.889 35.58,79.468 79.468,79.468 C -35.579,79.468 0,43.889 0,0"
       style="fill:#2c54ac;fill-opacity:1;fill-rule:nonzero;stroke:none"
       transform="matrix(1.3333333,0,0,-1.3333333,251.64347,145.95747)"
       clip-path="url(#clipPath9)" />
    <path
       id="path10"
       d="m 0,0 c 0,-43.889 -38.842,-79.468 -86.756,-79.468 -47.915,0 -86.757,35.579 -86.757,79.468 0,43.889 38.842,79.468 86.757,79.468 C -38.842,79.468 0,43.889 0,0 Z"
       style="fill:none;stroke:#2c54ac;stroke-width:1;stroke-linecap:butt;stroke-linejoin:miter;stroke-miterlimit:10;stroke-dasharray:none;stroke-opacity:1"
       transform="matrix(1.3333333,0,0,-1.3333333,260.9976,145.95747)"
       clip-path="url(#clipPath11)" />
    <path
       id="path12"
       d="M 0,0 19.887,-38.309 20.434,3.427 Z"
       style="fill:#2c54ac;fill-opacity:1;fill-rule:nonzero;stroke:none"
       transform="matrix(1.3333333,0,0,-1.3333333,104.56067,236.51867)"
       clip-path="url(#clipPath13)" />
    <path
       id="path14"
       d="m 0,0 c -3.564,-0.605 -6.649,-0.137 -9.253,1.406 -2.607,1.544 -4.177,3.898 -4.716,7.068 -0.521,3.068 0.204,5.84 2.178,8.316 1.971,2.473 4.69,4.005 8.157,4.594 3.464,0.589 6.488,0.033 9.069,-1.667 C 8.016,18.016 9.567,15.63 10.088,12.563 10.627,9.393 9.969,6.66 8.121,4.359 6.271,2.058 3.564,0.605 0,0 m -15.72,29.567 -1.338,7.871 c -0.84,4.949 -0.926,9.187 -0.251,12.715 0.674,3.526 1.774,6.642 3.301,9.347 1.527,2.703 3.119,5.163 4.78,7.382 2.253,2.928 4.213,5.782 5.879,8.562 1.668,2.778 2.164,6.147 1.491,10.108 -0.37,2.177 -1.226,3.917 -2.567,5.217 -1.343,1.3 -2.852,2.239 -4.528,2.821 -1.679,0.579 -3.259,0.745 -4.744,0.493 -2.873,-0.489 -5.158,-1.564 -6.862,-3.229 -1.703,-1.665 -2.998,-3.642 -3.881,-5.931 -0.886,-2.29 -1.578,-4.649 -2.082,-7.076 l -4.045,-0.688 -14.395,5.804 c 0.291,1.883 0.943,4.336 1.957,7.361 1.014,3.023 2.645,6.153 4.898,9.389 2.251,3.233 5.271,6.141 9.06,8.721 3.788,2.577 8.554,4.357 14.297,5.333 5.643,0.959 10.879,0.855 15.713,-0.309 4.832,-1.166 8.926,-3.525 12.281,-7.081 3.354,-3.555 5.587,-8.6 6.697,-15.134 0.926,-5.446 0.932,-9.978 0.018,-13.595 C 19.046,74.029 17.697,70.87 15.916,68.175 14.133,65.478 12.345,62.806 10.556,60.16 9.157,58.189 7.865,56.06 6.676,53.771 5.484,51.479 4.673,48.923 4.236,46.098 3.799,43.274 3.901,39.98 4.54,36.218 l 0.53,-3.117 z"
       style="fill:#55a3f3;fill-opacity:1;fill-rule:nonzero;stroke:none"
       transform="matrix(1.3333333,0,0,-1.3333333,160.1128,221.34347)"
       clip-path="url(#clipPath15)" />
    <path
       id="path16"
       d="m 0,0 c -3.564,-0.605 -6.65,-0.137 -9.253,1.406 -2.608,1.544 -4.177,3.898 -4.716,7.068 -0.521,3.068 0.204,5.84 2.177,8.316 1.972,2.473 4.691,4.005 8.158,4.594 3.464,0.589 6.488,0.033 9.069,-1.667 2.58,-1.701 4.132,-4.087 4.653,-7.154 C 10.627,9.393 9.969,6.66 8.121,4.359 6.27,2.059 3.564,0.606 0,0 m -15.72,29.567 -1.338,7.871 c -0.841,4.949 -0.926,9.187 -0.251,12.715 0.673,3.526 1.774,6.642 3.301,9.347 1.527,2.703 3.119,5.163 4.78,7.382 2.253,2.928 4.213,5.782 5.879,8.562 1.667,2.778 2.164,6.147 1.491,10.108 -0.37,2.177 -1.227,3.917 -2.568,5.217 -1.342,1.3 -2.851,2.239 -4.528,2.821 -1.678,0.579 -3.258,0.745 -4.744,0.493 -2.872,-0.489 -5.158,-1.564 -6.861,-3.229 -1.703,-1.665 -2.998,-3.642 -3.881,-5.931 -0.886,-2.29 -1.579,-4.649 -2.083,-7.076 l -18.44,5.116 c 0.291,1.883 0.944,4.336 1.958,7.362 1.014,3.022 2.645,6.152 4.898,9.388 2.251,3.233 5.271,6.141 9.06,8.721 3.787,2.577 8.553,4.357 14.297,5.333 5.642,0.959 10.878,0.855 15.713,-0.309 4.831,-1.166 8.926,-3.525 12.28,-7.081 3.355,-3.555 5.588,-8.6 6.698,-15.134 0.926,-5.446 0.932,-9.978 0.018,-13.595 C 19.046,74.029 17.697,70.87 15.916,68.175 14.133,65.478 12.345,62.806 10.555,60.16 9.157,58.189 7.865,56.06 6.675,53.771 5.484,51.479 4.672,48.923 4.236,46.099 3.799,43.274 3.9,39.98 4.54,36.218 l 0.53,-3.117 z"
       style="fill:#ffffff;fill-opacity:1;fill-rule:nonzero;stroke:none"
       transform="matrix(1.3333333,0,0,-1.3333333,154.72027,222.26013)"
       clip-path="url(#clipPath17)" />
    <path
       id="path18"
       d="m 0,0 c -12.171,-34.965 -50.383,-53.444 -85.349,-41.272 -34.964,12.171 -53.443,50.383 -41.272,85.349 12.172,34.965 50.384,53.444 85.349,41.272 C -6.307,73.178 12.172,34.965 0,0"
       style="fill:#55a3f3;fill-opacity:1;fill-rule:nonzero;stroke:none"
       transform="matrix(1.3333333,0,0,-1.3333333,611.65187,154.8136)"
       clip-path="url(#clipPath19)" />
    <path
       id="path20"
       d="m 0,0 c -12.172,-34.966 -52.983,-52.539 -91.156,-39.251 -38.172,13.288 -59.25,52.404 -47.079,87.37 12.172,34.965 52.983,52.539 91.156,39.251 C -8.907,74.083 12.171,34.965 0,0 Z"
       style="fill:none;stroke:#55a3f3;stroke-width:1;stroke-linecap:butt;stroke-linejoin:miter;stroke-miterlimit:10;stroke-dasharray:none;stroke-opacity:1"
       transform="matrix(1.3333333,0,0,-1.3333333,619.10493,157.40733)"
       clip-path="url(#clipPath21)" />
    <path
       id="path22"
       d="M 0,0 -15.141,-33.114 -17.36,2.026 Z"
       style="fill:#55a3f3;fill-opacity:1;fill-rule:nonzero;stroke:none"
       transform="matrix(1.3333333,0,0,-1.3333333,569.66093,199.6436)"
       clip-path="url(#clipPath23)" />
    <path
       id="path24"
       d="m 0,0 c -3.007,0.506 -5.336,1.734 -6.981,3.687 -1.65,1.952 -2.248,4.263 -1.797,6.938 0.435,2.588 1.781,4.596 4.041,6.021 2.256,1.424 4.847,1.89 7.772,1.398 C 5.958,17.553 8.214,16.271 9.798,14.201 11.382,12.13 11.957,9.799 11.521,7.21 11.071,4.536 9.789,2.541 7.679,1.221 5.566,-0.099 3.008,-0.506 0,0 m -4.324,27.915 1.117,6.641 c 0.702,4.176 1.81,7.576 3.326,10.2 1.514,2.622 3.255,4.8 5.222,6.531 1.966,1.73 3.917,3.249 5.855,4.555 2.608,1.708 4.96,3.439 7.059,5.191 2.099,1.751 3.429,4.298 3.99,7.64 0.31,1.836 0.109,3.46 -0.599,4.868 -0.709,1.408 -1.65,2.575 -2.824,3.503 -1.177,0.927 -2.39,1.498 -3.643,1.708 C 12.755,79.16 10.636,78.937 8.817,78.083 6.999,77.229 5.419,76.013 4.08,74.435 2.739,72.855 1.534,71.168 0.459,69.374 l -3.413,0.574 -9.859,8.616 c 0.753,1.42 1.955,3.193 3.601,5.322 1.647,2.127 3.814,4.168 6.506,6.121 2.689,1.951 5.901,3.431 9.637,4.435 3.731,1.003 8.022,1.1 12.868,0.285 4.762,-0.802 8.904,-2.336 12.432,-4.604 3.527,-2.269 6.134,-5.284 7.821,-9.047 1.686,-3.763 2.066,-8.401 1.138,-13.914 C 40.418,62.566 39.165,58.954 37.435,56.325 35.704,53.695 33.753,51.553 31.587,49.9 29.418,48.246 27.253,46.613 25.093,45 23.433,43.818 21.812,42.48 20.23,40.986 18.646,39.492 17.29,37.68 16.159,35.551 15.027,33.422 14.195,30.77 13.661,27.595 l -0.442,-2.631 z"
       style="fill:#2c54ac;fill-opacity:1;fill-rule:nonzero;stroke:none"
       transform="matrix(1.3333333,0,0,-1.3333333,517.82507,189.48867)"
       clip-path="url(#clipPath25)" />
    <path
       id="path26"
       d="m 0,0 c -3.007,0.506 -5.335,1.735 -6.981,3.687 -1.65,1.953 -2.247,4.263 -1.797,6.938 0.435,2.588 1.782,4.597 4.041,6.021 2.257,1.424 4.847,1.891 7.772,1.398 C 5.958,17.553 8.214,16.271 9.798,14.201 11.382,12.13 11.957,9.799 11.521,7.21 11.071,4.536 9.789,2.542 7.679,1.221 5.566,-0.099 3.008,-0.506 0,0 m -4.324,27.916 1.117,6.64 c 0.702,4.177 1.81,7.576 3.326,10.2 1.515,2.622 3.255,4.8 5.222,6.531 1.967,1.731 3.917,3.249 5.856,4.556 2.607,1.707 4.959,3.438 7.058,5.191 2.099,1.751 3.429,4.297 3.99,7.639 0.31,1.837 0.109,3.461 -0.598,4.869 -0.71,1.407 -1.651,2.574 -2.825,3.503 -1.177,0.927 -2.389,1.497 -3.643,1.708 -2.424,0.407 -4.543,0.185 -6.362,-0.67 C 6.999,77.229 5.419,76.014 4.08,74.435 2.739,72.856 1.534,71.168 0.459,69.375 l -13.272,9.19 c 0.753,1.419 1.955,3.192 3.601,5.321 1.647,2.127 3.814,4.168 6.506,6.122 2.689,1.951 5.901,3.43 9.637,4.435 3.731,1.003 8.022,1.099 12.868,0.284 4.762,-0.801 8.904,-2.336 12.432,-4.604 3.527,-2.269 6.134,-5.284 7.821,-9.047 1.686,-3.763 2.066,-8.401 1.138,-13.914 C 40.418,62.566 39.166,58.954 37.436,56.326 35.704,53.696 33.753,51.553 31.587,49.9 29.418,48.246 27.253,46.613 25.094,45.001 23.433,43.819 21.812,42.48 20.23,40.987 18.646,39.492 17.29,37.68 16.159,35.551 15.028,33.422 14.195,30.77 13.661,27.596 l -0.442,-2.631 z"
       style="fill:#ffffff;fill-opacity:1;fill-rule:nonzero;stroke:none"
       transform="matrix(1.3333333,0,0,-1.3333333,513.27427,188.72373)"
       clip-path="url(#clipPath27)" />
    <path
       id="path28"
       d="m 0,0 c -7.996,-25.879 6.5,-53.34 32.379,-61.336 25.879,-7.997 53.341,6.5 61.337,32.378 7.996,25.879 -6.5,53.341 -32.379,61.337 C 35.458,40.375 7.997,25.879 0,0"
       style="fill:#0a2a6b;fill-opacity:1;fill-rule:nonzero;stroke:none"
       transform="matrix(1.3333333,0,0,-1.3333333,282.7964,209.04987)"
       clip-path="url(#clipPath29)" />
    <path
       id="path30"
       d="m 0,0 c -7.997,-25.879 8.372,-53.918 36.56,-62.628 28.188,-8.71 57.521,5.208 65.517,31.086 7.996,25.879 -8.372,53.919 -36.559,62.629 C 37.33,39.797 7.996,25.879 0,0 Z"
       style="fill:none;stroke:#0a2a6b;stroke-width:1;stroke-linecap:butt;stroke-linejoin:miter;stroke-miterlimit:10;stroke-dasharray:none;stroke-opacity:1"
       transform="matrix(1.3333333,0,0,-1.3333333,276.6896,207.72173)"
       clip-path="url(#clipPath31)" />
    <path
       id="path32"
       d="m 0,0 -13.922,-17.299 1.705,21.074 z"
       style="fill:#0a2a6b;fill-opacity:1;fill-rule:nonzero;stroke:none"
       transform="matrix(1.3333333,0,0,-1.3333333,343.35373,290.6476)"
       clip-path="url(#clipPath33)" />
    <path
       id="path34"
       d="m 0,0 c -2.092,-0.008 -3.808,0.551 -5.147,1.678 -1.342,1.128 -2.015,2.619 -2.023,4.479 -0.007,1.8 0.669,3.314 2.029,4.539 1.36,1.225 3.056,1.842 5.09,1.85 2.032,0.009 3.705,-0.595 5.017,-1.809 C 6.278,9.522 6.937,8.014 6.945,6.214 6.952,4.354 6.318,2.857 5.046,1.719 3.772,0.582 2.091,0.008 0,0 m -6.174,18.359 -0.018,4.618 c -0.012,2.904 0.34,5.33 1.059,7.28 0.718,1.948 1.641,3.622 2.769,5.021 1.127,1.398 2.267,2.651 3.426,3.76 1.562,1.458 2.951,2.901 4.165,4.33 1.213,1.427 1.816,3.303 1.806,5.627 -0.005,1.277 -0.329,2.351 -0.971,3.22 -0.643,0.868 -1.416,1.547 -2.317,2.038 -0.903,0.489 -1.789,0.733 -2.66,0.73 -1.686,-0.007 -3.092,-0.404 -4.222,-1.193 -1.129,-0.789 -2.054,-1.795 -2.775,-3.018 -0.723,-1.223 -1.341,-2.503 -1.858,-3.841 l -2.373,-0.009 -7.666,4.674 c 0.345,1.047 0.949,2.385 1.814,4.015 0.865,1.629 2.092,3.261 3.683,4.894 1.591,1.632 3.589,3.006 5.996,4.12 2.405,1.112 5.293,1.677 8.662,1.69 3.31,0.014 6.289,-0.541 8.937,-1.663 2.648,-1.122 4.761,-2.856 6.338,-5.202 1.578,-2.346 2.375,-5.436 2.391,-9.27 0.012,-3.195 -0.413,-5.782 -1.277,-7.76 -0.863,-1.979 -1.931,-3.653 -3.203,-5.023 -1.273,-1.37 -2.546,-2.726 -3.817,-4.066 C 10.73,32.338 9.791,31.246 8.896,30.052 8,28.857 7.295,27.475 6.778,25.905 6.262,24.334 6.008,22.445 6.017,20.238 l 0.007,-1.829 z"
       style="fill:#55a3f3;fill-opacity:1;fill-rule:nonzero;stroke:none"
       transform="matrix(1.3333333,0,0,-1.3333333,345.98907,272.70547)"
       clip-path="url(#clipPath35)" />
    <path
       id="path36"
       d="m 0,0 c -2.092,-0.008 -3.808,0.551 -5.147,1.678 -1.342,1.128 -2.015,2.619 -2.023,4.479 -0.007,1.8 0.669,3.314 2.029,4.539 1.36,1.225 3.056,1.843 5.09,1.851 2.032,0.008 3.705,-0.595 5.017,-1.81 C 6.278,9.522 6.937,8.014 6.944,6.214 6.952,4.354 6.318,2.857 5.046,1.719 3.772,0.582 2.091,0.009 0,0 m -6.173,18.359 -0.019,4.618 c -0.012,2.904 0.34,5.33 1.059,7.28 0.718,1.948 1.641,3.622 2.769,5.021 1.127,1.398 2.267,2.652 3.426,3.761 1.562,1.457 2.951,2.9 4.165,4.329 1.213,1.428 1.816,3.303 1.806,5.627 -0.005,1.277 -0.329,2.351 -0.971,3.22 -0.643,0.869 -1.416,1.548 -2.317,2.038 -0.903,0.49 -1.789,0.734 -2.66,0.73 -1.686,-0.007 -3.092,-0.404 -4.222,-1.193 -1.129,-0.789 -2.054,-1.794 -2.775,-3.017 -0.722,-1.223 -1.34,-2.504 -1.858,-3.841 l -10.039,4.664 c 0.345,1.047 0.949,2.385 1.814,4.015 0.865,1.629 2.092,3.261 3.683,4.894 1.591,1.632 3.589,3.006 5.996,4.12 2.405,1.112 5.293,1.677 8.662,1.69 3.31,0.014 6.289,-0.541 8.937,-1.663 2.648,-1.122 4.761,-2.856 6.338,-5.202 1.578,-2.346 2.375,-5.436 2.39,-9.27 0.013,-3.195 -0.412,-5.782 -1.276,-7.76 C 17.872,40.442 16.804,38.767 15.532,37.398 14.259,36.027 12.986,34.672 11.715,33.331 10.73,32.338 9.791,31.246 8.896,30.052 8,28.857 7.294,27.476 6.778,25.905 6.262,24.334 6.008,22.445 6.017,20.238 l 0.007,-1.829 z"
       style="fill:#ffffff;fill-opacity:1;fill-rule:nonzero;stroke:none"
       transform="matrix(1.3333333,0,0,-1.3333333,342.82507,272.71853)"
       clip-path="url(#clipPath37)" />
    <g
       opacity="0.399994"
       id="g51"
       clip-path="url(#clipPath52)">
      <path
         d="m 0,0 c -1.875,-0.378 -3.515,-0.18 -4.916,0.594 -1.403,0.774 -2.271,1.993 -2.607,3.661 -0.326,1.614 0.012,3.092 1.016,4.432 1.003,1.34 2.416,2.194 4.239,2.562 1.823,0.367 3.43,0.122 4.823,-0.735 C 3.947,9.656 4.806,8.419 5.131,6.806 5.467,5.138 5.163,3.683 4.224,2.436 3.282,1.189 1.874,0.377 0,0 m -8.791,15.38 -0.834,4.141 c -0.525,2.603 -0.639,4.842 -0.339,6.719 0.299,1.875 0.831,3.541 1.595,4.996 0.764,1.454 1.565,2.781 2.408,3.981 1.144,1.584 2.134,3.125 2.97,4.622 0.837,1.496 1.045,3.286 0.625,5.369 -0.231,1.145 -0.712,2.052 -1.442,2.717 -0.731,0.666 -1.544,1.138 -2.44,1.419 -0.897,0.279 -1.735,0.341 -2.517,0.184 -1.51,-0.305 -2.702,-0.911 -3.575,-1.819 -0.874,-0.907 -1.527,-1.974 -1.957,-3.198 -0.432,-1.226 -0.759,-2.484 -0.986,-3.776 l -9.834,2.408 c 0.124,1 0.429,2.308 0.916,3.923 0.488,1.615 1.3,3.297 2.438,5.044 1.139,1.746 2.688,3.332 4.651,4.758 1.961,1.424 4.452,2.443 7.472,3.051 2.969,0.599 5.74,0.628 8.315,0.091 C 1.249,59.472 3.452,58.29 5.283,56.464 7.114,54.639 8.376,52.007 9.069,48.57 9.646,45.705 9.723,43.309 9.299,41.381 8.874,39.453 8.212,37.761 7.313,36.307 6.414,34.852 5.512,33.41 4.608,31.982 3.901,30.917 3.252,29.77 2.66,28.541 2.067,27.31 1.68,25.945 1.494,24.444 c -0.185,-1.5 -0.078,-3.24 0.32,-5.219 l 0.332,-1.641 z"
         style="fill:#55a3f3;fill-opacity:1;fill-rule:nonzero;stroke:none"
         transform="matrix(1.3333333,0,0,-1.3333333,616.4032,312.83693)"
         clip-path="url(#clipPath38)"
         id="path45" />
      <path
         d="m 0,0 c -1.584,-0.727 -3.079,-0.893 -4.484,-0.498 -1.406,0.394 -2.43,1.295 -3.076,2.703 -0.625,1.363 -0.632,2.745 -0.022,4.144 0.61,1.396 1.686,2.449 3.226,3.155 1.54,0.705 3.017,0.823 4.43,0.352 C 1.488,9.387 2.507,8.469 3.132,7.105 3.778,5.696 3.812,4.343 3.238,3.041 2.663,1.739 1.583,0.726 0,0 m -11.002,11.809 -1.603,3.497 c -1.008,2.2 -1.576,4.162 -1.701,5.889 -0.126,1.726 -0.002,3.314 0.373,4.763 0.374,1.449 0.808,2.793 1.306,4.033 0.684,1.644 1.241,3.217 1.67,4.719 0.431,1.501 0.243,3.132 -0.564,4.892 -0.443,0.967 -1.059,1.67 -1.846,2.109 -0.786,0.438 -1.606,0.687 -2.459,0.749 -0.854,0.061 -1.611,-0.059 -2.27,-0.361 -1.277,-0.585 -2.207,-1.37 -2.793,-2.358 -0.586,-0.987 -0.942,-2.069 -1.069,-3.245 -0.126,-1.177 -0.155,-2.361 -0.087,-3.555 l -9.224,0.086 c -0.099,0.913 -0.1,2.137 -0.005,3.671 0.096,1.534 0.465,3.195 1.111,4.982 0.645,1.786 1.689,3.516 3.132,5.189 1.443,1.672 3.44,3.094 5.993,4.264 2.508,1.149 4.958,1.753 7.354,1.813 2.395,0.059 4.596,-0.529 6.6,-1.767 2.005,-1.238 3.673,-3.308 5.003,-6.212 1.11,-2.421 1.677,-4.53 1.703,-6.328 0.025,-1.798 -0.209,-3.438 -0.703,-4.914 -0.495,-1.478 -0.994,-2.945 -1.498,-4.4 -0.405,-1.092 -0.742,-2.244 -1.01,-3.458 -0.27,-1.215 -0.329,-2.507 -0.181,-3.876 0.148,-1.369 0.606,-2.89 1.373,-4.562 l 0.634,-1.386 z"
         style="fill:#55a3f3;fill-opacity:1;fill-rule:nonzero;stroke:none"
         transform="matrix(1.3333333,0,0,-1.3333333,76.8752,388.296)"
         clip-path="url(#clipPath39)"
         id="path46" />
      <path
         d="m 0,0 c -1.723,0.259 -3.064,0.939 -4.024,2.038 -0.961,1.099 -1.326,2.414 -1.094,3.946 0.223,1.483 0.972,2.643 2.249,3.479 1.275,0.835 2.751,1.127 4.427,0.874 C 3.232,10.085 4.533,9.375 5.459,8.208 6.384,7.041 6.735,5.714 6.512,4.231 6.28,2.699 5.567,1.547 4.375,0.772 3.181,-0.002 1.723,-0.26 0,0 m -2.742,15.905 0.573,3.804 c 0.36,2.393 0.96,4.346 1.801,5.86 0.84,1.513 1.812,2.773 2.92,3.782 1.105,1.007 2.205,1.894 3.3,2.659 1.472,1.001 2.799,2.013 3.981,3.034 1.183,1.021 1.917,2.489 2.206,4.404 0.158,1.052 0.028,1.978 -0.39,2.775 -0.419,0.797 -0.967,1.455 -1.648,1.974 C 9.32,44.715 8.622,45.029 7.903,45.137 6.515,45.346 5.307,45.198 4.276,44.692 3.245,44.187 2.354,43.477 1.605,42.562 0.854,41.647 0.183,40.671 -0.414,39.636 l -7.672,5.121 c 0.417,0.818 1.086,1.843 2.006,3.075 0.92,1.231 2.138,2.418 3.657,3.56 1.518,1.141 3.338,2.017 5.462,2.628 2.122,0.609 4.572,0.706 7.348,0.288 2.728,-0.412 5.11,-1.248 7.147,-2.51 2.037,-1.261 3.556,-2.958 4.556,-5.091 1.001,-2.133 1.263,-4.779 0.786,-7.938 C 22.479,36.136 21.8,34.06 20.837,32.542 19.873,31.022 18.779,29.78 17.559,28.814 16.335,27.848 15.114,26.894 13.896,25.952 12.959,25.26 12.047,24.48 11.157,23.611 10.267,22.742 9.51,21.694 8.885,20.467 8.259,19.239 7.81,17.716 7.535,15.897 L 7.309,14.39 Z"
         style="fill:#55a3f3;fill-opacity:1;fill-rule:nonzero;stroke:none"
         transform="matrix(1.3333333,0,0,-1.3333333,347.86933,96.751733)"
         clip-path="url(#clipPath40)"
         id="path47" />
      <path
         d="m 0,0 c -1.39,-0.262 -2.6,-0.1 -3.628,0.485 -1.031,0.586 -1.661,1.495 -1.893,2.731 -0.226,1.196 0.039,2.285 0.793,3.267 0.754,0.981 1.807,1.599 3.158,1.853 C -0.22,8.591 0.967,8.395 1.988,7.748 3.009,7.101 3.632,6.178 3.857,4.982 4.09,3.747 3.852,2.673 3.145,1.761 2.438,0.849 1.389,0.262 0,0 m -6.353,11.452 -0.578,3.069 c -0.363,1.929 -0.426,3.585 -0.187,4.97 0.239,1.383 0.648,2.609 1.226,3.677 0.579,1.068 1.184,2.041 1.818,2.92 0.861,1.161 1.607,2.291 2.239,3.39 0.633,1.097 0.803,2.418 0.513,3.962 -0.16,0.849 -0.507,1.523 -1.04,2.022 -0.534,0.499 -1.131,0.856 -1.791,1.072 -0.66,0.215 -1.28,0.269 -1.858,0.16 -1.12,-0.211 -2.007,-0.648 -2.661,-1.311 -0.654,-0.662 -1.147,-1.445 -1.476,-2.346 -0.331,-0.901 -0.585,-1.829 -0.765,-2.782 l -7.247,1.873 c 0.101,0.738 0.339,1.702 0.715,2.892 0.375,1.189 0.991,2.424 1.85,3.705 0.857,1.28 2.018,2.438 3.482,3.474 1.463,1.034 3.314,1.763 5.553,2.184 2.2,0.414 4.248,0.41 6.146,-0.011 1.898,-0.422 3.516,-1.316 4.852,-2.684 1.336,-1.366 2.245,-3.323 2.724,-5.871 0.4,-2.123 0.434,-3.895 0.102,-5.316 C 6.932,29.08 6.427,27.835 5.749,26.77 5.07,25.702 4.39,24.645 3.708,23.598 3.175,22.817 2.685,21.976 2.236,21.072 1.786,20.168 1.486,19.163 1.335,18.055 1.184,16.948 1.247,15.66 1.523,14.194 l 0.229,-1.215 z"
         style="fill:#55a3f3;fill-opacity:1;fill-rule:nonzero;stroke:none"
         transform="matrix(1.3333333,0,0,-1.3333333,307.91427,148.91187)"
         clip-path="url(#clipPath41)"
         id="path48" />
      <path
         d="m 0,0 c -1.013,0.253 -1.774,0.735 -2.284,1.445 -0.511,0.711 -0.654,1.515 -0.428,2.416 0.218,0.872 0.731,1.522 1.54,1.948 0.808,0.425 1.705,0.515 2.691,0.269 C 2.503,5.833 3.238,5.334 3.724,4.585 4.209,3.836 4.343,3.025 4.125,2.153 3.9,1.252 3.409,0.606 2.653,0.211 1.897,-0.183 1.014,-0.253 0,0 m -0.729,9.644 0.558,2.237 c 0.352,1.407 0.82,2.538 1.408,3.393 0.586,0.854 1.24,1.551 1.956,2.089 0.718,0.539 1.424,1.005 2.121,1.399 0.936,0.513 1.785,1.041 2.548,1.583 0.763,0.542 1.285,1.376 1.567,2.501 0.154,0.619 0.129,1.178 -0.075,1.678 C 9.149,25.023 8.859,25.447 8.483,25.795 8.106,26.143 7.708,26.37 7.286,26.476 6.469,26.68 5.74,26.66 5.097,26.417 4.453,26.174 3.881,25.801 3.382,25.298 2.882,24.795 2.426,24.251 2.011,23.668 l -4.285,3.491 c 0.295,0.465 0.753,1.038 1.372,1.72 0.618,0.683 1.413,1.321 2.383,1.916 0.971,0.595 2.107,1.014 3.409,1.257 1.3,0.242 2.767,0.16 4.399,-0.247 1.605,-0.401 2.978,-1.035 4.121,-1.904 1.144,-0.868 1.952,-1.967 2.428,-3.297 0.474,-1.33 0.48,-2.923 0.016,-4.78 -0.386,-1.548 -0.91,-2.747 -1.571,-3.598 C 13.622,17.375 12.898,16.695 12.115,16.189 11.331,15.682 10.548,15.183 9.768,14.69 9.17,14.331 8.581,13.917 8.001,13.45 7.42,12.982 6.909,12.4 6.466,11.703 6.022,11.007 5.668,10.124 5.4,9.054 L 5.18,8.168 Z"
         style="fill:#55a3f3;fill-opacity:1;fill-rule:nonzero;stroke:none"
         transform="matrix(1.3333333,0,0,-1.3333333,388.01907,146.17813)"
         clip-path="url(#clipPath42)"
         id="path49" />
      <path
         d="m 0,0 c -1.172,0.189 -2.081,0.662 -2.728,1.417 -0.646,0.757 -0.884,1.654 -0.716,2.696 0.163,1.009 0.681,1.794 1.557,2.355 0.875,0.559 1.883,0.748 3.023,0.564 C 2.274,6.848 3.155,6.354 3.777,5.553 4.399,4.751 4.629,3.845 4.466,2.836 4.298,1.794 3.804,1.015 2.986,0.495 2.167,-0.024 1.172,-0.189 0,0 m -1.754,10.855 0.418,2.588 c 0.263,1.628 0.685,2.953 1.269,3.979 0.583,1.024 1.254,1.877 2.015,2.556 0.761,0.678 1.517,1.274 2.269,1.788 1.01,0.671 1.921,1.351 2.733,2.039 0.813,0.686 1.324,1.681 1.534,2.983 C 8.6,27.504 8.518,28.136 8.239,28.682 7.959,29.228 7.59,29.68 7.131,30.038 6.67,30.396 6.196,30.615 5.708,30.693 4.764,30.847 3.939,30.754 3.233,30.417 2.527,30.08 1.916,29.603 1.398,28.984 0.881,28.367 0.416,27.707 0.002,27.006 l -5.189,3.544 c 0.29,0.554 0.752,1.247 1.387,2.08 0.636,0.832 1.475,1.632 2.518,2.399 1.042,0.767 2.288,1.35 3.739,1.751 1.45,0.4 3.12,0.449 5.009,0.143 1.855,-0.299 3.472,-0.886 4.851,-1.76 1.378,-0.874 2.402,-2.041 3.067,-3.502 0.666,-1.46 0.826,-3.265 0.479,-5.413 -0.29,-1.791 -0.767,-3.2 -1.434,-4.227 -0.667,-1.029 -1.421,-1.868 -2.261,-2.516 -0.84,-0.65 -1.679,-1.291 -2.515,-1.924 C 9.01,17.116 8.383,16.592 7.771,16.006 7.157,15.42 6.635,14.712 6.199,13.88 5.765,13.048 5.447,12.014 5.247,10.776 L 5.082,9.752 Z"
         style="fill:#55a3f3;fill-opacity:1;fill-rule:nonzero;stroke:none"
         transform="matrix(1.3333333,0,0,-1.3333333,576.05027,377.76213)"
         clip-path="url(#clipPath43)"
         id="path50" />
      <path
         d="m 0,0 c -1.172,-0.031 -2.141,0.261 -2.906,0.876 -0.766,0.615 -1.162,1.443 -1.19,2.485 -0.027,1.009 0.333,1.866 1.081,2.57 0.746,0.703 1.689,1.07 2.829,1.101 C 0.953,7.062 1.898,6.745 2.649,6.081 3.399,5.416 3.788,4.579 3.814,3.57 3.842,2.528 3.506,1.681 2.807,1.027 2.107,0.374 1.172,0.031 0,0 M -3.69,10.213 -3.759,12.8 c -0.043,1.628 0.124,2.992 0.502,4.094 0.378,1.101 0.874,2.051 1.488,2.849 0.615,0.798 1.239,1.515 1.873,2.151 0.858,0.836 1.618,1.663 2.281,2.479 0.662,0.815 0.976,1.874 0.942,3.176 -0.019,0.716 -0.215,1.314 -0.585,1.793 -0.372,0.479 -0.813,0.849 -1.325,1.113 -0.512,0.263 -1.012,0.389 -1.5,0.376 -0.944,-0.025 -1.728,-0.266 -2.351,-0.722 -0.623,-0.456 -1.129,-1.031 -1.518,-1.726 -0.389,-0.695 -0.719,-1.42 -0.993,-2.176 l -5.685,2.488 c 0.18,0.591 0.502,1.348 0.966,2.273 0.464,0.924 1.132,1.854 2.003,2.79 0.871,0.934 1.974,1.729 3.308,2.384 1.334,0.653 2.946,1.006 4.834,1.056 1.856,0.049 3.532,-0.224 5.031,-0.82 1.498,-0.595 2.704,-1.541 3.617,-2.836 0.914,-1.295 1.4,-3.017 1.456,-5.165 C 10.633,26.586 10.427,25.131 9.968,24.012 9.509,22.892 8.931,21.939 8.236,21.156 7.54,20.372 6.843,19.596 6.147,18.829 5.608,18.26 5.096,17.636 4.609,16.956 4.121,16.274 3.744,15.491 3.474,14.604 3.204,13.718 3.085,12.656 3.118,11.419 l 0.028,-1.025 z"
         style="fill:#55a3f3;fill-opacity:1;fill-rule:nonzero;stroke:none"
         transform="matrix(1.3333333,0,0,-1.3333333,82.754133,308.5792)"
         clip-path="url(#clipPath44)"
         id="path51" />
    </g>
    <path
       id="path53"
       d="m 0,0 h 36.51 l -1.284,75.006 c -4.891,2.67 -9.968,4.996 -15.184,6.954 z"
       style="fill:#ff8775;fill-opacity:1;fill-rule:nonzero;stroke:none"
       transform="matrix(1.3333333,0,0,-1.3333333,355.8524,666.66707)"
       clip-path="url(#clipPath54)" />
    <path
       id="path55"
       d="M 0,0 C 5.216,-1.958 10.293,-4.284 15.184,-6.954 L 14.079,57.577 Z"
       style="fill:#55a3f3;fill-opacity:1;fill-rule:nonzero;stroke:none"
       transform="matrix(1.3333333,0,0,-1.3333333,382.57507,557.38707)"
       clip-path="url(#clipPath56)" />
    <path
       id="path57"
       d="M 0,0 C -2.63,1.839 -4.363,3.161 -4.772,3.825 -7.337,7.994 -6.656,50.432 -6.656,50.432 L -49.585,22.062 -49.994,1.597 c 0,0 -4.479,-1.94 -10.779,-5.325 l 17.071,-40.108 z"
       style="fill:#ff8775;fill-opacity:1;fill-rule:nonzero;stroke:none"
       transform="matrix(1.3333333,0,0,-1.3333333,534.58547,428.17227)"
       clip-path="url(#clipPath58)" />
    <path
       id="path59"
       d="M 0,0 C -2.408,18.235 -41.325,42.329 -55.195,52.022 L -98.897,8.187 -115.969,48.295 c -13.129,-7.054 -34.177,-20.395 -39.155,-35.607 -7.367,-22.51 -5.089,-139.537 -5.089,-139.537 h 146.297 c 0,0 1.638,35.166 1.638,50.311 C -12.278,-61.395 2.865,-21.692 0,0"
       style="fill:#55a3f3;fill-opacity:1;fill-rule:nonzero;stroke:none"
       transform="matrix(1.3333333,0,0,-1.3333333,608.1792,497.5356)"
       clip-path="url(#clipPath60)" />
    <g
       opacity="0.300003"
       id="g86"
       clip-path="url(#clipPath87)">
      <path
         d="M 0,0 V -237.615"
         style="fill:none;stroke:#2c54ac;stroke-width:0.974;stroke-linecap:butt;stroke-linejoin:miter;stroke-miterlimit:10;stroke-dasharray:none;stroke-opacity:1"
         transform="matrix(1.3333333,0,0,-1.3333333,580.4748,402.07987)"
         clip-path="url(#clipPath61)"
         id="path74" />
      <path
         d="M 0,0 V -237.615"
         style="fill:none;stroke:#2c54ac;stroke-width:0.974;stroke-linecap:butt;stroke-linejoin:miter;stroke-miterlimit:10;stroke-dasharray:none;stroke-opacity:1"
         transform="matrix(1.3333333,0,0,-1.3333333,542.13107,402.07987)"
         clip-path="url(#clipPath62)"
         id="path75" />
      <path
         d="M 0,0 V -237.615"
         style="fill:none;stroke:#2c54ac;stroke-width:0.974;stroke-linecap:butt;stroke-linejoin:miter;stroke-miterlimit:10;stroke-dasharray:none;stroke-opacity:1"
         transform="matrix(1.3333333,0,0,-1.3333333,503.786,402.07987)"
         clip-path="url(#clipPath63)"
         id="path76" />
      <path
         d="M 0,0 V -237.615"
         style="fill:none;stroke:#2c54ac;stroke-width:0.974;stroke-linecap:butt;stroke-linejoin:miter;stroke-miterlimit:10;stroke-dasharray:none;stroke-opacity:1"
         transform="matrix(1.3333333,0,0,-1.3333333,465.44227,402.07987)"
         clip-path="url(#clipPath64)"
         id="path77" />
      <path
         d="M 0,0 V -237.615"
         style="fill:none;stroke:#2c54ac;stroke-width:0.974;stroke-linecap:butt;stroke-linejoin:miter;stroke-miterlimit:10;stroke-dasharray:none;stroke-opacity:1"
         transform="matrix(1.3333333,0,0,-1.3333333,427.09853,402.07987)"
         clip-path="url(#clipPath65)"
         id="path78" />
      <path
         d="M 0,0 H 175.53"
         style="fill:none;stroke:#2c54ac;stroke-width:0.974;stroke-linecap:butt;stroke-linejoin:miter;stroke-miterlimit:10;stroke-dasharray:none;stroke-opacity:1"
         transform="matrix(1.3333333,0,0,-1.3333333,376.78853,456.68787)"
         clip-path="url(#clipPath66)"
         id="path79" />
      <path
         d="M 0,0 H 175.53"
         style="fill:none;stroke:#2c54ac;stroke-width:0.974;stroke-linecap:butt;stroke-linejoin:miter;stroke-miterlimit:10;stroke-dasharray:none;stroke-opacity:1"
         transform="matrix(1.3333333,0,0,-1.3333333,376.78853,484.44707)"
         clip-path="url(#clipPath67)"
         id="path80" />
      <path
         d="M 0,0 H 175.53"
         style="fill:none;stroke:#2c54ac;stroke-width:0.974;stroke-linecap:butt;stroke-linejoin:miter;stroke-miterlimit:10;stroke-dasharray:none;stroke-opacity:1"
         transform="matrix(1.3333333,0,0,-1.3333333,376.78853,512.20613)"
         clip-path="url(#clipPath68)"
         id="path81" />
      <path
         d="M 0,0 H 175.53"
         style="fill:none;stroke:#2c54ac;stroke-width:0.974;stroke-linecap:butt;stroke-linejoin:miter;stroke-miterlimit:10;stroke-dasharray:none;stroke-opacity:1"
         transform="matrix(1.3333333,0,0,-1.3333333,376.78853,539.9652)"
         clip-path="url(#clipPath69)"
         id="path82" />
      <path
         d="M 0,0 H 175.53"
         style="fill:none;stroke:#2c54ac;stroke-width:0.974;stroke-linecap:butt;stroke-linejoin:miter;stroke-miterlimit:10;stroke-dasharray:none;stroke-opacity:1"
         transform="matrix(1.3333333,0,0,-1.3333333,376.78853,567.7244)"
         clip-path="url(#clipPath70)"
         id="path83" />
      <path
         d="M 0,0 H 175.53"
         style="fill:none;stroke:#2c54ac;stroke-width:0.974;stroke-linecap:butt;stroke-linejoin:miter;stroke-miterlimit:10;stroke-dasharray:none;stroke-opacity:1"
         transform="matrix(1.3333333,0,0,-1.3333333,376.78853,595.48347)"
         clip-path="url(#clipPath71)"
         id="path84" />
      <path
         d="M 0,0 H 175.53"
         style="fill:none;stroke:#2c54ac;stroke-width:0.974;stroke-linecap:butt;stroke-linejoin:miter;stroke-miterlimit:10;stroke-dasharray:none;stroke-opacity:1"
         transform="matrix(1.3333333,0,0,-1.3333333,376.78853,623.24253)"
         clip-path="url(#clipPath72)"
         id="path85" />
      <path
         d="M 0,0 H 175.53"
         style="fill:none;stroke:#2c54ac;stroke-width:0.974;stroke-linecap:butt;stroke-linejoin:miter;stroke-miterlimit:10;stroke-dasharray:none;stroke-opacity:1"
         transform="matrix(1.3333333,0,0,-1.3333333,376.78853,651.00173)"
         clip-path="url(#clipPath73)"
         id="path86" />
    </g>
    <path
       id="path88"
       d="m 0,0 c -0.482,2.271 -0.367,4.625 -0.18,6.939 0.738,9.116 2.482,17.389 5.345,26.074 -4.23,0.064 -8.398,2.005 -11.17,5.201 -2.771,3.197 -3.558,7.918 -3.02,12.115 -1.995,-3.199 -5.508,-5.402 -9.256,-5.805 -0.915,-0.098 -1.858,-0.092 -2.735,0.187 -2.409,0.768 -3.767,3.475 -3.781,6.003 -0.015,2.53 0.959,5.071 1.976,7.387 -6.014,-7.099 -16.177,-8.957 -25.481,-9.044 -5.237,-0.05 -10.538,0.326 -15.527,1.92 -2.747,0.877 -5.392,2.165 -7.734,3.843 -0.531,-1.635 -1.023,-3.326 -1.439,-5.123 -6.393,-27.646 0.762,-68.479 4.641,-86.786 1.232,-5.816 6.286,-10.047 12.229,-10.197 6.522,-0.165 14.92,0.207 21.09,2.54 14.317,5.416 28.98,14.641 41.396,34.854 C 3.32,-7.135 0.839,-3.948 0,0"
       style="fill:#ff8775;fill-opacity:1;fill-rule:nonzero;stroke:none"
       transform="matrix(1.3333333,0,0,-1.3333333,523.00213,348.6424)"
       clip-path="url(#clipPath89)" />
    <path
       id="path90"
       d="m 0,0 c -21.744,4.349 -52.983,2.265 -63.275,-29.407 2.341,-1.678 4.986,-2.966 7.733,-3.843 4.989,-1.594 10.29,-1.97 15.527,-1.92 9.304,0.087 19.467,1.945 25.481,9.044 -1.017,-2.316 -1.99,-4.857 -1.976,-7.387 0.014,-2.529 1.372,-5.235 3.781,-6.003 0.877,-0.279 1.82,-0.285 2.735,-0.187 3.748,0.403 7.262,2.606 9.256,5.805 -0.537,-4.197 0.249,-8.918 3.02,-12.115 2.772,-3.196 6.94,-5.137 11.17,-5.201 -2.863,-8.685 -4.607,-16.958 -5.345,-26.074 -0.187,-2.314 -0.302,-4.668 0.18,-6.939 0.839,-3.948 3.32,-7.135 6.354,-9.892 4.171,6.793 8.09,14.825 11.657,24.373 C 40.476,-31.786 22.868,-4.574 0,0"
       style="fill:#0a2a6b;fill-opacity:1;fill-rule:nonzero;stroke:none"
       transform="matrix(1.3333333,0,0,-1.3333333,511.95267,236.3396)"
       clip-path="url(#clipPath91)" />
    <path
       id="path92"
       d="m 0,0 c -1.55,-5.661 -5.354,-11.065 -10.173,-14.454 -1.509,-1.061 -3.154,-1.946 -4.804,-2.179 -3.719,-0.524 -6.572,2.531 -7.142,6.272 -0.571,3.74 0.682,7.947 2.348,11.834 2.153,5.025 5.667,10.38 10.48,11.858 C -1.532,15.714 1.919,7.011 0,0"
       style="fill:#ff8775;fill-opacity:1;fill-rule:nonzero;stroke:none"
       transform="matrix(1.3333333,0,0,-1.3333333,553.18053,342.49133)"
       clip-path="url(#clipPath93)" />
    <g
       id="g95"
       clip-path="url(#clipPath96)">
      <path
         d="M 0,0 C 1.685,0.635 3.299,1.759 4.602,3.206 4.863,3.496 5.122,3.817 5.229,4.183 5.434,4.881 5.027,5.46 4.641,5.924 L 2.297,8.742 C 2.142,8.931 1.98,9.13 1.949,9.397 c -0.035,0.295 0.094,0.619 0.219,0.922 1.598,3.867 3.431,8.041 6.77,10.475 0.901,0.657 1.911,1.165 2.9,1.249 1.47,0.125 2.708,-0.71 3.471,-1.869 0.761,-1.16 1.118,-2.618 1.435,-4.066 0,0 -0.4,-8.083 -6.311,-13.316 C 4.521,-2.442 0,0 0,0"
         style="fill:#ff8775;fill-opacity:1;fill-rule:nonzero;stroke:none"
         transform="matrix(1.3333333,0,0,-1.3333333,528.3836,358.546)"
         clip-path="url(#clipPath94)"
         id="path95" />
    </g>
    <path
       id="path97"
       d="M 0,0 C -0.507,1.51 -0.968,3.109 -1.999,4.213 -2.496,4.761 -3.122,5.174 -3.791,5.332 -4.462,5.491 -5.143,5.41 -5.804,5.13 -7.114,4.55 -8.311,3.516 -9.28,2.359 c -0.991,-1.156 -1.814,-2.478 -2.527,-3.866 -0.738,-1.378 -1.368,-2.83 -2,-4.294 -0.17,-0.369 -0.322,-0.74 -0.305,-0.823 -0.003,-0.024 -0.002,-0.063 0.083,-0.185 l 0.351,-0.448 c 0.501,-0.624 0.993,-1.257 1.481,-1.893 0.248,-0.328 0.479,-0.609 0.747,-0.984 0.252,-0.366 0.509,-0.854 0.484,-1.424 -0.021,-0.569 -0.327,-1.035 -0.613,-1.353 -0.295,-0.326 -0.586,-0.597 -0.9,-0.872 -1.264,-1.055 -2.702,-1.914 -4.265,-2.325 1.433,0.728 2.717,1.68 3.75,2.855 0.504,0.569 1.114,1.219 1.039,1.699 -0.011,0.485 -0.612,1.038 -1.149,1.651 -0.536,0.595 -1.068,1.194 -1.59,1.801 l -0.411,0.48 c -0.159,0.194 -0.355,0.525 -0.38,0.904 -0.016,0.732 0.243,1.096 0.358,1.465 0.597,1.492 1.231,2.988 1.984,4.446 1.533,2.853 3.611,5.765 6.937,7.039 0.833,0.285 1.83,0.359 2.699,0.042 0.869,-0.307 1.58,-0.902 2.081,-1.6 C -0.458,3.226 -0.188,1.586 0,0"
       style="fill:#0a2a6b;fill-opacity:1;fill-rule:nonzero;stroke:none"
       transform="matrix(1.3333333,0,0,-1.3333333,550.7092,337.06813)"
       clip-path="url(#clipPath98)" />
    <path
       id="path99"
       d="m 0,0 c 0,0 11.272,2.79 16.956,6.626 12.418,8.38 18.542,17.846 18.542,17.846 0,0 -6.676,-15.568 -16.132,-22.741 C 9.91,-5.44 -0.171,-8.542 -0.171,-8.542 Z"
       style="fill:#0a2a6b;fill-opacity:1;fill-rule:nonzero;stroke:none"
       transform="matrix(1.3333333,0,0,-1.3333333,468.24827,409.96267)"
       clip-path="url(#clipPath100)" />
    <path
       id="path101"
       d="m 0,0 c 0,-2.5 -1.225,-4.528 -2.734,-4.528 -1.51,0 -2.734,2.028 -2.734,4.528 0,2.501 1.224,4.528 2.734,4.528 C -1.225,4.528 0,2.501 0,0"
       style="fill:#0a2a6b;fill-opacity:1;fill-rule:nonzero;stroke:none"
       transform="matrix(1.3333333,0,0,-1.3333333,440.72613,326.3084)"
       clip-path="url(#clipPath102)" />
    <path
       id="path103"
       d="m 0,0 c 0,-2.5 -1.224,-4.527 -2.733,-4.527 -1.51,0 -2.735,2.027 -2.735,4.527 0,2.501 1.225,4.528 2.735,4.528 C -1.224,4.528 0,2.501 0,0"
       style="fill:#0a2a6b;fill-opacity:1;fill-rule:nonzero;stroke:none"
       transform="matrix(1.3333333,0,0,-1.3333333,483.398,335.09413)"
       clip-path="url(#clipPath104)" />
    <path
       id="path105"
       d="m 0,0 c -1.383,-2.202 -2.646,-4.437 -3.748,-6.738 -1.103,-2.301 -2.051,-4.659 -2.83,-7.068 -0.792,-2.405 -1.378,-4.868 -1.831,-7.355 -0.426,-2.49 -0.697,-5.009 -0.765,-7.545 l -0.56,0.775 c 3.571,-1.368 7.296,-2.346 11.139,-3.077 -3.913,-0.178 -7.872,0.392 -11.668,1.515 l -0.535,0.159 -0.024,0.616 c -0.106,2.631 0.043,5.279 0.472,7.884 0.404,2.608 1.107,5.167 2.014,7.64 0.92,2.47 2.08,4.847 3.472,7.071 C -3.474,-3.9 -1.854,-1.824 0,0"
       style="fill:#0a2a6b;fill-opacity:1;fill-rule:nonzero;stroke:none"
       transform="matrix(1.3333333,0,0,-1.3333333,457.8068,324.34747)"
       clip-path="url(#clipPath106)" />
    <path
       id="path107"
       d="m 0,0 c -9.069,0.038 -17.801,-5.419 -21.603,-13.653 4.971,5.698 13.199,8.335 20.555,6.586 C -0.559,-4.828 -0.204,-2.283 0,0"
       style="fill:#0a2a6b;fill-opacity:1;fill-rule:nonzero;stroke:none"
       transform="matrix(1.3333333,0,0,-1.3333333,452.9044,296.43987)"
       clip-path="url(#clipPath108)" />
    <path
       id="path109"
       d="m 0,0 c -1.974,3.33 -5.194,5.787 -8.702,7.425 -3.508,1.638 -7.315,2.521 -11.111,3.275 0.542,2.266 0.897,4.43 1.561,6.664 C -10.234,14.285 -2.856,8.1 0,0"
       style="fill:#0a2a6b;fill-opacity:1;fill-rule:nonzero;stroke:none"
       transform="matrix(1.3333333,0,0,-1.3333333,498.24307,322.0128)"
       clip-path="url(#clipPath110)" />
    <path
       id="path111"
       d="m 0,0 c -3.477,0.616 -6.489,0.029 -6.727,-1.312 -0.196,-1.106 1.562,-2.379 4.136,-3.138 2.113,1.615 4.746,2.553 7.404,2.619 C 3.765,-1.052 2.03,-0.36 0,0"
       style="fill:#0a2a6b;fill-opacity:1;fill-rule:nonzero;stroke:none"
       transform="matrix(1.3333333,0,0,-1.3333333,450.70133,380.68787)"
       clip-path="url(#clipPath112)" />
    <path
       id="path113"
       d="m 0,0 c -2.658,-0.066 -5.291,-1.004 -7.404,-2.619 0.544,-0.16 1.123,-0.299 1.729,-0.406 3.478,-0.618 6.489,-0.031 6.727,1.311 C 1.151,-1.156 0.748,-0.556 0,0"
       style="fill:#ff4648;fill-opacity:1;fill-rule:nonzero;stroke:none"
       transform="matrix(1.3333333,0,0,-1.3333333,457.11933,383.12933)"
       clip-path="url(#clipPath114)" />
    <path
       id="path115"
       d="M 0,0 -12.526,-16.673 -90.988,45.85 c 0,0 -21.242,7.22 -27.199,12.582 -5.957,5.36 -19.061,32.96 -24.422,31.669 -5.361,-1.29 -8.935,-19.161 -5.659,-31.074 3.276,-11.914 8.34,-21.742 13.701,-24.72 5.361,-2.978 43.185,-10.722 43.185,-10.722 0,0 40.207,-50.929 50.631,-61.949 10.425,-11.02 46.462,-41.399 46.462,-41.399 l 35.442,37.528 c 0,0 -10.721,15.487 -21.742,26.506 C 8.392,-4.709 0,0 0,0"
       style="fill:#ff8775;fill-opacity:1;fill-rule:nonzero;stroke:none"
       transform="matrix(1.3333333,0,0,-1.3333333,515.57893,543.9092)"
       clip-path="url(#clipPath116)" />
    <path
       id="path117"
       d="m 0,0 c 3.206,5.749 6.562,11.41 10.063,16.977 3.481,5.582 7.095,11.079 10.828,16.503 1.895,2.694 3.796,5.384 5.812,8.009 2.008,2.622 4.196,5.188 6.636,7.442 4.832,4.563 10.267,8.42 16.068,11.535 C 46.718,58.569 44.1,56.594 41.609,54.468 39.104,52.366 36.699,50.154 34.438,47.822 33.31,46.652 32.231,45.44 31.187,44.207 30.158,42.957 29.172,41.676 28.215,40.349 26.272,37.728 24.393,35.04 22.533,32.341 L 11.362,16.123 C 7.645,10.707 3.857,5.334 0,0"
       style="fill:#0a2a6b;fill-opacity:1;fill-rule:nonzero;stroke:none"
       transform="matrix(1.3333333,0,0,-1.3333333,507.15707,555.11893)"
       clip-path="url(#clipPath118)" />
    <path
       id="path119"
       d="m 0,0 c -1.806,-2.779 -3.762,-5.431 -5.771,-8.038 -2,-2.615 -4.089,-5.154 -6.196,-7.68 -2.136,-2.501 -4.29,-4.985 -6.533,-7.394 -2.233,-2.418 -4.521,-4.789 -6.962,-7.034 1.804,2.782 3.76,5.434 5.77,8.041 2,2.615 4.089,5.154 6.198,7.677 2.137,2.499 4.291,4.985 6.535,7.393 C -4.725,-4.617 -2.438,-2.245 0,0"
       style="fill:#0a2a6b;fill-opacity:1;fill-rule:nonzero;stroke:none"
       transform="matrix(1.3333333,0,0,-1.3333333,593.1128,571.9796)"
       clip-path="url(#clipPath120)" />
    <path
       id="path121"
       d="m 0,0 c 2.583,-1.838 5.177,-3.57 7.776,-5.332 2.606,-1.75 5.19,-3.564 7.674,-5.554 2.459,-2.019 4.81,-4.23 6.77,-6.785 1.964,-2.532 3.563,-5.417 4.312,-8.51 -1.526,2.781 -3.399,5.246 -5.502,7.5 -2.113,2.243 -4.42,4.3 -6.84,6.243 -2.399,1.973 -4.916,3.844 -7.345,5.861 C 4.411,-4.573 2.024,-2.449 0,0"
       style="fill:#0a2a6b;fill-opacity:1;fill-rule:nonzero;stroke:none"
       transform="matrix(1.3333333,0,0,-1.3333333,494.77813,562.8976)"
       clip-path="url(#clipPath122)" />
    <path
       id="path123"
       d="m 0,0 c 0.313,0.43 0.902,0.575 1.419,0.493 0.534,-0.075 0.997,-0.407 1.355,-0.791 0.707,-0.798 1.181,-1.733 1.658,-2.661 0.923,-1.876 1.58,-3.857 2.337,-5.776 1.519,-3.842 3.183,-7.624 5.112,-11.271 0.968,-1.821 1.914,-3.659 3.24,-5.115 1.31,-1.456 3.071,-2.421 4.955,-3.109 3.824,-1.303 7.922,-2.078 11.978,-2.498 l -0.617,-1.149 c -1.056,1.261 -2.648,2.064 -4.276,2.896 -0.816,0.419 -1.654,0.863 -2.459,1.409 -0.802,0.558 -1.534,1.212 -2.176,1.944 -1.268,1.472 -2.214,3.215 -2.718,5.083 -0.528,1.862 -0.61,3.85 -0.239,5.761 l 0.123,0.635 0.638,-0.081 c 2.037,-0.259 3.975,-0.939 5.776,-1.797 1.802,-0.868 3.483,-1.904 5.148,-2.919 1.668,-1.013 3.298,-2.052 5.017,-2.893 1.706,-0.872 3.515,-1.434 5.404,-1.959 1.876,-0.52 3.803,-1.139 5.545,-2.128 1.754,-0.957 3.311,-2.232 4.66,-3.678 2.715,-2.884 4.626,-6.431 5.765,-10.16 -1.388,3.639 -3.411,7.062 -6.188,9.744 -1.379,1.343 -2.933,2.498 -4.626,3.374 -1.686,0.897 -3.52,1.432 -5.414,1.902 -1.882,0.465 -3.835,1.012 -5.637,1.872 -1.806,0.835 -3.522,1.819 -5.188,2.831 -3.32,2.002 -6.701,4.005 -10.422,4.433 l 0.76,0.553 c -0.309,-1.682 -0.225,-3.446 0.262,-5.1 0.462,-1.66 1.324,-3.204 2.452,-4.49 0.575,-0.634 1.211,-1.207 1.904,-1.705 0.705,-0.488 1.481,-0.913 2.288,-1.336 1.592,-0.843 3.377,-1.713 4.689,-3.294 l 1.12,-1.349 -1.737,0.198 c -4.174,0.477 -8.273,1.279 -12.284,2.685 -1.985,0.735 -3.971,1.841 -5.393,3.537 -1.426,1.666 -2.333,3.593 -3.256,5.443 C 9.15,-16.724 7.511,-12.89 6.183,-8.948 5.508,-6.98 4.947,-4.988 4.122,-3.103 3.703,-2.17 3.252,-1.224 2.633,-0.423 2.313,-0.037 1.902,0.298 1.402,0.4 0.916,0.507 0.339,0.408 0,0"
       style="fill:#0a2a6b;fill-opacity:1;fill-rule:nonzero;stroke:none"
       transform="matrix(1.3333333,0,0,-1.3333333,316.39533,448.3428)"
       clip-path="url(#clipPath124)" />
    <path
       id="path125"
       d="M 0,0 C 1.539,-0.623 2.491,-2.115 3.163,-3.544 3.83,-5.011 4.391,-6.482 4.999,-7.953 l 3.539,-8.843 c 1.233,-2.938 2.29,-5.909 3.775,-8.57 0.797,-1.36 1.594,-2.711 2.476,-3.998 0.909,-1.253 1.844,-2.541 3.196,-3.338 l -0.054,-0.14 c -1.577,0.507 -2.795,1.719 -3.873,2.898 -1.092,1.201 -2.032,2.512 -2.927,3.838 -1.882,2.748 -2.753,5.894 -3.773,8.873 l -3.085,9.01 c -0.52,1.496 -0.982,3.032 -1.537,4.494 -0.565,1.433 -1.364,2.895 -2.797,3.591 z"
       style="fill:#0a2a6b;fill-opacity:1;fill-rule:nonzero;stroke:none"
       transform="matrix(1.3333333,0,0,-1.3333333,319.70787,431.5304)"
       clip-path="url(#clipPath126)" />
    <path
       id="path127"
       d="m 0,0 c 2.396,-2.669 3.925,-5.99 5.269,-9.272 1.309,-3.317 2.58,-6.598 4.332,-9.651 1.721,-3.068 3.794,-5.91 5.82,-8.787 2.041,-2.884 4.078,-5.72 6.665,-8.167 l -0.089,-0.121 c -1.559,0.896 -2.955,2.071 -4.231,3.342 -1.288,1.266 -2.433,2.65 -3.547,4.049 -2.221,2.811 -4.069,5.916 -5.677,9.122 -1.658,3.192 -2.818,6.609 -3.975,9.947 -1.152,3.335 -2.46,6.663 -4.681,9.441 z"
       style="fill:#0a2a6b;fill-opacity:1;fill-rule:nonzero;stroke:none"
       transform="matrix(1.3333333,0,0,-1.3333333,326.46373,424.91187)"
       clip-path="url(#clipPath128)" />
    <path
       id="path129"
       d="m 0,0 -0.072,-11.879 -0.17,-11.873 c -0.107,-7.915 -0.32,-15.826 -0.372,-23.737 -0.185,-7.909 -0.178,-15.817 -0.201,-23.732 -0.025,-3.956 -0.022,-7.913 0.004,-11.87 -0.02,-3.958 0.028,-7.914 0.078,-11.875 -0.39,3.945 -0.583,7.902 -0.813,11.857 -0.176,3.957 -0.308,7.916 -0.423,11.876 -0.217,7.917 -0.211,15.844 -0.143,23.766 0.178,7.92 0.368,15.837 0.722,23.748 l 0.587,11.865 C -0.543,-7.901 -0.326,-3.948 0,0"
       style="fill:#0a2a6b;fill-opacity:1;fill-rule:nonzero;stroke:none"
       transform="matrix(1.3333333,0,0,-1.3333333,396.07107,523.6384)"
       clip-path="url(#clipPath130)" />
    <path
       id="path131"
       d="M 0,0 -5.578,3.813 -49.28,-40.023 -66.352,0.085 -72.48,-3.363 -51.907,-54.113 Z"
       style="fill:#0a2a6b;fill-opacity:1;fill-rule:nonzero;stroke:none"
       transform="matrix(1.3333333,0,0,-1.3333333,542.02293,433.2556)"
       clip-path="url(#clipPath132)" />
    <g
       opacity="0.399994"
       id="g140"
       clip-path="url(#clipPath141)">
      <path
         d="m 0,0 c 2.203,-0.032 4.402,-0.029 6.598,0.081 2.194,0.121 4.383,0.299 6.56,0.575 4.357,0.527 8.663,1.419 12.874,2.619 4.218,1.176 8.34,2.708 12.3,4.553 3.927,1.874 7.714,4.159 10.643,7.356 l 1.616,1.764 -0.844,-2.235 c -0.488,-1.293 -0.88,-2.62 -0.82,-3.936 0.055,-1.287 0.612,-2.609 1.663,-3.283 1.05,-0.695 2.466,-0.696 3.784,-0.416 1.33,0.286 2.65,0.803 3.932,1.336 2.569,1.094 4.949,2.608 7.131,4.364 2.172,1.774 4.076,3.875 5.691,6.189 C 68.185,14.149 63.757,10.205 58.571,7.822 57.267,7.242 55.959,6.686 54.537,6.339 c -1.389,-0.322 -3.04,-0.434 -4.408,0.44 -1.362,0.874 -2.007,2.459 -2.087,3.954 -0.078,1.521 0.353,2.964 0.842,4.302 l 0.772,-0.471 C 46.63,11.228 42.768,8.793 38.743,6.952 34.707,5.112 30.534,3.603 26.261,2.449 21.989,1.29 17.613,0.539 13.219,0.106 8.82,-0.315 4.391,-0.341 0,0"
         style="fill:#55a3f3;fill-opacity:1;fill-rule:nonzero;stroke:none"
         transform="matrix(1.3333333,0,0,-1.3333333,431.8732,267.42227)"
         clip-path="url(#clipPath133)"
         id="path137" />
      <path
         d="m 0,0 c -1.703,-3.93 -3.309,-7.924 -4.108,-12.092 -0.799,-4.138 -0.809,-8.496 0.593,-12.448 0.652,-1.984 1.699,-3.816 3.029,-5.427 1.342,-1.606 2.977,-2.951 4.736,-4.109 1.771,-1.145 3.7,-2.056 5.712,-2.737 1.999,-0.712 4.098,-1.225 6.248,-1.119 -2.137,-0.335 -4.324,0.087 -6.395,0.651 -2.078,0.598 -4.09,1.448 -5.969,2.551 -3.752,2.186 -6.883,5.668 -8.305,9.864 -1.395,4.186 -1.38,8.718 -0.398,12.932 0.497,2.112 1.19,4.164 2.014,6.153 C -1.986,-3.805 -1.046,-1.873 0,0"
         style="fill:#55a3f3;fill-opacity:1;fill-rule:nonzero;stroke:none"
         transform="matrix(1.3333333,0,0,-1.3333333,531.506,244.5544)"
         clip-path="url(#clipPath134)"
         id="path138" />
      <path
         d="m 0,0 c -0.348,-1.048 -0.646,-2.1 -0.809,-3.176 -0.192,-1.067 -0.287,-2.147 -0.267,-3.221 0.034,-2.145 0.43,-4.279 1.298,-6.215 0.844,-1.941 2.17,-3.666 3.781,-5.065 0.808,-0.701 1.705,-1.305 2.668,-1.791 0.952,-0.516 1.984,-0.877 3.055,-1.146 -1.106,0.045 -2.201,0.317 -3.255,0.698 -1.043,0.413 -2.034,0.97 -2.947,1.637 -1.827,1.339 -3.287,3.18 -4.217,5.263 -0.91,2.091 -1.3,4.391 -1.149,6.639 C -1.704,-4.131 -1.092,-1.924 0,0"
         style="fill:#55a3f3;fill-opacity:1;fill-rule:nonzero;stroke:none"
         transform="matrix(1.3333333,0,0,-1.3333333,540.14533,253.4412)"
         clip-path="url(#clipPath135)"
         id="path139" />
      <path
         d="m 0,0 c -0.492,-0.58 -0.994,-1.157 -1.506,-1.727 l -1.66,-1.591 -1.809,-1.429 -1.916,-1.288 c -2.622,-1.625 -5.523,-2.793 -8.52,-3.536 -3.004,-0.72 -6.117,-1.016 -9.193,-0.781 l -2.294,0.263 -2.263,0.436 -2.206,0.651 c -0.717,0.271 -1.428,0.552 -2.132,0.841 0.742,-0.188 1.477,-0.381 2.204,-0.586 l 2.231,-0.425 2.242,-0.29 2.254,-0.121 c 3.005,-0.051 6.01,0.263 8.92,0.983 2.916,0.698 5.728,1.802 8.374,3.228 C -4.633,-3.935 -2.19,-2.12 0,0"
         style="fill:#55a3f3;fill-opacity:1;fill-rule:nonzero;stroke:none"
         transform="matrix(1.3333333,0,0,-1.3333333,493.25347,234.56427)"
         clip-path="url(#clipPath136)"
         id="path140" />
    </g>
    <path
       id="path142"
       d="M 0,0 -21.455,76.165 -39.215,5.911 -36.378,-4.326 C -24.191,-6.461 -11.349,-4.929 0,0"
       style="fill:#0a2a6b;fill-opacity:1;fill-rule:nonzero;stroke:none"
       transform="matrix(1.3333333,0,0,-1.3333333,323.62187,604.54733)"
       clip-path="url(#clipPath143)" />
    <path
       id="path144"
       d="M 0,0 -13.123,46.59 C -24.472,41.661 -37.314,40.129 -49.501,42.264 L -37.788,0 Z"
       style="fill:#ff8775;fill-opacity:1;fill-rule:nonzero;stroke:none"
       transform="matrix(1.3333333,0,0,-1.3333333,341.11933,666.66707)"
       clip-path="url(#clipPath145)" />
    <path
       id="path146"
       d="m 0,0 -37.76,13.452 c 0,0 -54.287,-29.765 -59.473,-54.899 -5.187,-25.135 16.357,-109.009 16.357,-109.009 H 65.543 c 0,0 -21.942,48.071 -21.942,59.789 0,11.717 15.958,54.826 8.776,64.19 -7.181,9.366 -52.616,34.501 -52.616,34.501 z"
       style="fill:#0a2a6b;fill-opacity:1;fill-rule:nonzero;stroke:none"
       transform="matrix(1.3333333,0,0,-1.3333333,224.2176,466.05907)"
       clip-path="url(#clipPath147)" />
    <path
       id="path148"
       d="m 0,0 c -13.861,-2.538 -28.563,2.774 -37.76,13.452 1.558,7.441 2.247,15.064 2.047,22.662 -0.093,3.558 -0.391,7.161 -1.6,10.509 -0.821,2.277 -2.046,4.385 -3.265,6.478 -3.391,5.826 -6.783,11.653 -10.175,17.48 -1.843,3.164 -3.707,6.382 -4.606,9.932 -1.784,7.04 0.433,14.465 3.337,21.121 5.623,12.891 14.314,24.953 26.632,31.74 12.318,6.787 28.64,7.322 39.898,-1.106 4.416,-3.306 10.319,-6.461 11.518,-11.845 2.841,-12.758 5.689,-25.558 6.888,-38.572 1.199,-13.016 0.71,-26.33 -3.026,-38.855 C 28.202,37.344 25.684,31.643 21.044,27.999 17.911,25.538 14.036,24.205 10.148,23.33 6.786,22.574 3.241,22.136 -0.079,23.057 -0.392,15.737 -0.322,7.319 0,0"
       style="fill:#ff8775;fill-opacity:1;fill-rule:nonzero;stroke:none"
       transform="matrix(1.3333333,0,0,-1.3333333,224.2176,466.05907)"
       clip-path="url(#clipPath149)" />
    <path
       id="path150"
       d="m 0,0 c -3.696,-1.877 -6.741,-4.868 -9.165,-8.229 -9.266,-12.852 -9.245,-31.004 -2.114,-45.152 7.13,-14.149 21.259,-27.201 35.911,-33.229 0.043,7.11 -0.831,16.45 -2.69,23.313 3.814,0.93 7.325,3.068 9.901,6.031 -3.801,14.543 -7.728,28.843 -11.53,43.385 8.544,-2.104 17.895,-0.554 26.057,2.733 8.163,3.286 15.418,8.518 21.965,14.396 1.307,-3.703 4.329,-6.585 7.809,-8.402 3.481,-1.818 7.446,-2.551 11.371,-2.665 0.444,-2.292 0.84,-4.57 1.285,-6.862 6.863,4.293 12.951,11.961 12.033,20.004 -0.239,2.101 -0.907,4.135 -1.752,6.073 -3.12,7.157 -8.776,13.177 -15.725,16.737 C 79.227,30.248 74.707,31.5 70.16,32.422 55.015,35.492 39.159,34.995 24.236,30.982 19.516,29.713 14.819,28.063 10.822,25.25 3.006,19.748 -1.217,9.48 0,0"
       style="fill:#0a2a6b;fill-opacity:1;fill-rule:nonzero;stroke:none"
       transform="matrix(1.3333333,0,0,-1.3333333,143.7892,304.13653)"
       clip-path="url(#clipPath151)" />
    <path
       id="path152"
       d="m 0,0 c 1.55,-5.661 5.353,-11.065 10.173,-14.453 1.509,-1.062 3.154,-1.947 4.803,-2.18 3.72,-0.524 6.572,2.531 7.143,6.272 0.571,3.74 -0.682,7.948 -2.348,11.835 C 17.618,6.498 14.104,11.854 9.292,13.331 1.532,15.715 -1.919,7.012 0,0"
       style="fill:#ff8775;fill-opacity:1;fill-rule:nonzero;stroke:none"
       transform="matrix(1.3333333,0,0,-1.3333333,152.33027,383.55507)"
       clip-path="url(#clipPath153)" />
    <g
       id="g155"
       clip-path="url(#clipPath156)">
      <path
         d="m 0,0 c -1.685,0.634 -3.299,1.759 -4.602,3.205 -0.261,0.291 -0.521,0.611 -0.627,0.977 -0.205,0.698 0.202,1.277 0.588,1.742 l 2.344,2.818 c 0.155,0.188 0.317,0.388 0.348,0.655 0.034,0.294 -0.094,0.619 -0.219,0.922 -1.598,3.866 -3.431,8.04 -6.77,10.474 -0.901,0.657 -1.911,1.166 -2.9,1.25 -1.469,0.125 -2.708,-0.71 -3.471,-1.87 -0.762,-1.159 -1.118,-2.618 -1.436,-4.066 0,0 0.401,-8.082 6.312,-13.316 C -4.521,-2.442 0,0 0,0"
         style="fill:#ff8775;fill-opacity:1;fill-rule:nonzero;stroke:none"
         transform="matrix(1.3333333,0,0,-1.3333333,177.1272,399.60853)"
         clip-path="url(#clipPath154)"
         id="path155" />
    </g>
    <path
       id="path157"
       d="m 0,0 c 0.189,1.586 0.458,3.227 1.426,4.675 0.501,0.697 1.212,1.293 2.081,1.599 0.869,0.318 1.866,0.243 2.699,-0.042 3.326,-1.274 5.405,-4.185 6.937,-7.038 0.753,-1.459 1.387,-2.954 1.984,-4.447 0.116,-0.369 0.374,-0.732 0.358,-1.464 -0.025,-0.38 -0.221,-0.711 -0.379,-0.904 l -0.411,-0.481 c -0.523,-0.607 -1.055,-1.206 -1.591,-1.8 -0.536,-0.614 -1.138,-1.167 -1.149,-1.652 -0.075,-0.479 0.536,-1.129 1.04,-1.698 1.032,-1.175 2.316,-2.128 3.75,-2.855 -1.564,0.41 -3.001,1.27 -4.266,2.324 -0.313,0.275 -0.604,0.546 -0.899,0.873 -0.287,0.317 -0.592,0.784 -0.614,1.353 -0.024,0.569 0.233,1.057 0.485,1.423 0.267,0.375 0.499,0.656 0.747,0.985 0.487,0.635 0.979,1.268 1.48,1.893 l 0.352,0.447 c 0.084,0.122 0.085,0.161 0.083,0.185 0.016,0.084 -0.136,0.455 -0.306,0.823 -0.631,1.465 -1.261,2.916 -2,4.294 C 11.094,-0.118 10.272,1.203 9.28,2.359 8.311,3.517 7.115,4.551 5.804,5.131 5.143,5.41 4.462,5.491 3.792,5.332 3.123,5.175 2.496,4.761 2,4.214 0.968,3.109 0.508,1.511 0,0"
       style="fill:#0a2a6b;fill-opacity:1;fill-rule:nonzero;stroke:none"
       transform="matrix(1.3333333,0,0,-1.3333333,154.80093,378.13187)"
       clip-path="url(#clipPath158)" />
    <path
       id="path159"
       d="m 0,0 c 0.764,-2.45 1.405,-4.923 2.011,-7.402 0.6,-2.481 1.143,-4.971 1.656,-7.467 l 0.728,-3.741 c 0.255,-1.21 0.523,-2.345 1.102,-3.246 0.571,-0.915 1.44,-1.665 2.432,-2.314 0.998,-0.644 2.127,-1.16 3.271,-1.706 l 0.747,-0.357 -0.332,-0.68 c -1.581,-3.231 -4.338,-5.683 -7.401,-7.16 1.3,1.107 2.519,2.274 3.533,3.583 1.03,1.292 1.853,2.715 2.442,4.21 l 0.415,-1.037 c -1.208,0.426 -2.431,0.916 -3.617,1.587 -1.183,0.66 -2.334,1.576 -3.136,2.82 -0.82,1.249 -1.168,2.647 -1.396,3.925 l -0.646,3.777 C 1.41,-12.69 1.039,-10.169 0.727,-7.636 0.42,-5.103 0.148,-2.563 0,0"
       style="fill:#0a2a6b;fill-opacity:1;fill-rule:nonzero;stroke:none"
       transform="matrix(1.3333333,0,0,-1.3333333,240.22413,341.6892)"
       clip-path="url(#clipPath160)" />
    <path
       id="path161"
       d="m 0,0 c 0,-2.5 -1.224,-4.527 -2.733,-4.527 -1.511,0 -2.735,2.027 -2.735,4.527 0,2.501 1.224,4.528 2.735,4.528 C -1.224,4.528 0,2.501 0,0"
       style="fill:#0a2a6b;fill-opacity:1;fill-rule:nonzero;stroke:none"
       transform="matrix(1.3333333,0,0,-1.3333333,222.86147,359.20747)"
       clip-path="url(#clipPath162)" />
    <path
       id="path163"
       d="m 0,0 c 0,-2.501 -1.224,-4.528 -2.734,-4.528 -1.51,0 -2.734,2.027 -2.734,4.528 0,2.5 1.224,4.527 2.734,4.527 C -1.224,4.527 0,2.5 0,0"
       style="fill:#0a2a6b;fill-opacity:1;fill-rule:nonzero;stroke:none"
       transform="matrix(1.3333333,0,0,-1.3333333,261.14667,354.51733)"
       clip-path="url(#clipPath164)" />
    <path
       id="path165"
       d="m 0,0 c 0.553,2.248 1.468,4.419 2.629,6.493 1.192,2.056 2.713,3.969 4.564,5.587 0.926,0.812 1.887,1.611 2.935,2.31 1.051,0.691 2.23,1.19 3.467,1.456 1.237,0.261 2.515,0.349 3.773,0.199 1.253,-0.137 2.491,-0.482 3.586,-1.164 L 20.915,14.483 17.686,13.249 C 16.681,12.841 15.725,12.447 14.79,12.028 13.855,11.614 12.924,11.236 11.956,10.876 10.986,10.524 10.017,10.101 9.131,9.533 7.358,8.394 5.718,6.963 4.252,5.324 2.754,3.703 1.504,1.831 0.372,-0.147 Z"
       style="fill:#0a2a6b;fill-opacity:1;fill-rule:nonzero;stroke:none"
       transform="matrix(1.3333333,0,0,-1.3333333,196.57893,348.72573)"
       clip-path="url(#clipPath166)" />
    <path
       id="path167"
       d="m 0,0 c -1.254,1.518 -2.643,2.854 -4.224,3.889 -1.552,1.058 -3.223,1.89 -4.942,2.506 -0.862,0.307 -1.771,0.485 -2.671,0.629 -0.898,0.15 -1.766,0.356 -2.632,0.638 -1.74,0.584 -3.486,1.15 -5.494,2.132 l -0.027,0.399 c 1.92,1.233 4.129,1.536 6.257,1.401 2.168,-0.097 4.089,-1.264 5.917,-2.298 1.848,-1.043 3.519,-2.364 4.917,-3.91 C -1.528,3.82 -0.38,2.083 0.346,0.2 Z"
       style="fill:#0a2a6b;fill-opacity:1;fill-rule:nonzero;stroke:none"
       transform="matrix(1.3333333,0,0,-1.3333333,265.80493,340.4288)"
       clip-path="url(#clipPath168)" />
    <path
       id="path169"
       d="M 0,0 C 3.478,0.617 6.489,0.03 6.727,-1.311 6.923,-2.418 5.166,-3.691 2.591,-4.449 0.478,-2.834 -2.155,-1.896 -4.813,-1.831 -3.764,-1.052 -2.029,-0.36 0,0"
       style="fill:#0a2a6b;fill-opacity:1;fill-rule:nonzero;stroke:none"
       transform="matrix(1.3333333,0,0,-1.3333333,246.91747,402.91973)"
       clip-path="url(#clipPath170)" />
    <path
       id="path171"
       d="M 0,0 C 2.658,-0.065 5.291,-1.003 7.404,-2.618 6.86,-2.778 6.281,-2.917 5.675,-3.024 2.197,-3.642 -0.814,-3.055 -1.052,-1.714 -1.151,-1.155 -0.749,-0.556 0,0"
       style="fill:#ff4648;fill-opacity:1;fill-rule:nonzero;stroke:none"
       transform="matrix(1.3333333,0,0,-1.3333333,240.50013,405.36107)"
       clip-path="url(#clipPath172)" />
    <path
       id="path173"
       d="m 0,0 16.086,-16.699 c 0,0 13.121,96.693 12.855,104.43 -0.266,7.738 -5.511,26.289 -1.315,26.98 4.197,0.69 12.487,-17.687 12.487,-17.687 0,0 53.257,9.515 57.453,8.701 4.197,-0.815 -2.098,-5.361 -8.043,-7.459 -5.945,-2.098 -11.155,-3.197 -11.155,-3.197 0,0 1.716,-2.081 2.394,-4.7 0.388,-1.499 0,-4.749 0,-4.749 0,0 0.486,-3.485 0.034,-5.131 -0.359,-1.309 -1.577,-3.102 -1.577,-3.102 0,0 0.46,-3.555 -0.341,-4.734 -1.294,-1.908 -3.27,-2.725 -3.27,-2.725 -5.695,-6.116 -12.716,-0.749 -12.716,-0.749 l -4.387,0.107 -13.234,0.325 c 0,0 -1.803,-66.325 -2.704,-86.31 -0.901,-19.986 -6.911,-51.837 -6.911,-51.837 l -51.462,30.348 c 0,0 3.084,14.124 7.592,24.64 C -3.707,-3.031 0,0 0,0"
       style="fill:#ff8775;fill-opacity:1;fill-rule:nonzero;stroke:none"
       transform="matrix(1.3333333,0,0,-1.3333333,170.62773,564.68267)"
       clip-path="url(#clipPath174)" />
    <path
       id="path175"
       d="m 0,0 c 0.034,3.616 0.149,7.229 0.226,10.845 0.045,1.812 0.092,3.594 0.039,5.393 -0.055,1.796 -0.173,3.59 -0.327,5.382 -0.331,3.584 -0.778,7.164 -1.12,10.772 -0.361,3.602 -0.632,7.235 -0.626,10.889 l 0.001,0.556 0.546,0.14 c 2.464,0.631 5.198,-0.1 6.988,-1.924 0.887,-0.9 1.504,-1.972 2.003,-3.036 0.488,-1.068 0.926,-2.133 1.256,-3.288 0.327,-1.141 0.499,-2.399 0.38,-3.613 -0.111,-1.192 -0.296,-2.214 -0.027,-3.167 0.258,-0.972 0.786,-1.964 1.384,-2.848 0.611,-0.886 1.324,-1.708 2.149,-2.411 l -0.491,0.123 12.019,2.2 c 4.018,0.677 8.025,1.407 12.052,2.039 -3.958,-0.975 -7.936,-1.85 -11.903,-2.778 l -11.935,-2.615 -0.266,-0.057 -0.224,0.18 c -1.863,1.502 -3.32,3.454 -4.057,5.834 -0.361,1.265 -0.129,2.551 -0.051,3.607 0.089,1.052 -0.062,2.083 -0.37,3.122 -0.303,1.026 -0.742,2.066 -1.21,3.057 -0.473,0.983 -1.029,1.899 -1.751,2.613 -1.424,1.404 -3.636,2.038 -5.59,1.555 l 0.548,0.696 C -0.404,39.691 -0.18,36.104 0.14,32.514 L 0.635,27.119 C 0.784,25.316 0.91,23.507 1.011,21.695 1.205,18.076 1.229,14.416 0.897,10.808 0.6,7.206 0.34,3.602 0,0"
       style="fill:#0a2a6b;fill-opacity:1;fill-rule:nonzero;stroke:none"
       transform="matrix(1.3333333,0,0,-1.3333333,207.30493,467.24133)"
       clip-path="url(#clipPath176)" />
    <path
       id="path177"
       d="m 0,0 c -1.281,-0.601 -2.593,-1.058 -3.917,-1.463 -1.322,-0.415 -2.663,-0.744 -4.007,-1.058 -1.35,-0.285 -2.705,-0.551 -4.078,-0.733 -1.372,-0.191 -2.755,-0.33 -4.17,-0.323 1.28,0.603 2.593,1.06 3.917,1.466 1.322,0.415 2.662,0.744 4.007,1.054 1.351,0.284 2.706,0.551 4.079,0.732 C -2.797,-0.135 -1.415,0.005 0,0"
       style="fill:#0a2a6b;fill-opacity:1;fill-rule:nonzero;stroke:none"
       transform="matrix(1.3333333,0,0,-1.3333333,275.118,437.9236)"
       clip-path="url(#clipPath178)" />
    <path
       id="path179"
       d="m 0,0 c 1.449,0.376 2.904,0.603 4.362,0.778 1.458,0.186 2.92,0.283 4.383,0.363 1.463,0.052 2.928,0.086 4.398,0.032 C 14.611,1.129 16.082,1.031 17.56,0.784 16.112,0.407 14.656,0.179 13.198,0.004 11.74,-0.181 10.278,-0.278 8.815,-0.356 7.352,-0.407 5.887,-0.44 4.417,-0.386 2.949,-0.342 1.478,-0.244 0,0"
       style="fill:#0a2a6b;fill-opacity:1;fill-rule:nonzero;stroke:none"
       transform="matrix(1.3333333,0,0,-1.3333333,254.89733,451.56813)"
       clip-path="url(#clipPath180)" />
    <path
       id="path181"
       d="M 0,0 C 1.247,0.406 2.529,0.615 3.812,0.734 5.096,0.862 6.383,0.865 7.664,0.829 8.944,0.766 10.219,0.661 11.484,0.464 12.75,0.276 14.008,0.029 15.26,-0.357 13.97,-0.594 12.688,-0.673 11.412,-0.704 10.136,-0.745 8.868,-0.706 7.604,-0.669 6.341,-0.604 5.082,-0.543 3.819,-0.432 2.556,-0.33 1.292,-0.213 0,0"
       style="fill:#0a2a6b;fill-opacity:1;fill-rule:nonzero;stroke:none"
       transform="matrix(1.3333333,0,0,-1.3333333,255.90707,461.02387)"
       clip-path="url(#clipPath182)" />
    <path
       id="path183"
       d="m 0,0 c -1.01,-0.323 -2.023,-0.499 -3.036,-0.622 -1.013,-0.133 -2.027,-0.191 -3.042,-0.207 -1.014,-0.013 -2.029,0.018 -3.046,0.124 -1.016,0.097 -2.033,0.246 -3.051,0.545 1.01,0.326 2.023,0.502 3.036,0.626 1.013,0.132 2.027,0.19 3.041,0.204 1.015,0.011 2.031,-0.021 3.047,-0.127 C -2.036,0.446 -1.019,0.298 0,0"
       style="fill:#0a2a6b;fill-opacity:1;fill-rule:nonzero;stroke:none"
       transform="matrix(1.3333333,0,0,-1.3333333,268.0516,471.87413)"
       clip-path="url(#clipPath184)" />
    <path
       id="path185"
       d="m 0,0 c 0.09,-1.727 0.056,-3.429 -0.006,-5.126 -0.054,-1.698 -0.172,-3.389 -0.284,-5.078 -0.141,-1.689 -0.277,-3.376 -0.479,-5.064 -0.192,-1.687 -0.416,-3.376 -0.765,-5.068 -0.275,1.707 -0.378,3.417 -0.404,5.126 -0.036,1.709 0.038,3.415 0.153,5.118 0.143,1.701 0.326,3.4 0.618,5.084 C -0.883,-3.322 -0.526,-1.646 0,0"
       style="fill:#0a2a6b;fill-opacity:1;fill-rule:nonzero;stroke:none"
       transform="matrix(1.3333333,0,0,-1.3333333,191.82707,583.23347)"
       clip-path="url(#clipPath186)" />
    <path
       id="path187"
       d="m 0,0 c -3.324,3.783 -6.562,7.635 -9.788,11.497 -3.227,3.86 -6.384,7.777 -9.581,11.664 -3.131,3.935 -6.301,7.828 -9.785,11.424 -3.476,3.591 -7.346,6.843 -11.766,9.267 2.306,-1.018 4.472,-2.344 6.532,-3.81 2.042,-1.494 3.956,-3.158 5.778,-4.913 3.637,-3.524 6.825,-7.455 10.018,-11.34 3.131,-3.938 6.3,-7.847 9.4,-11.81 C -6.091,8.016 -3.003,4.042 0,0"
       style="fill:#55a3f3;fill-opacity:1;fill-rule:nonzero;stroke:none"
       transform="matrix(1.3333333,0,0,-1.3333333,171.96507,566.36493)"
       clip-path="url(#clipPath188)" />
    <path
       id="path189"
       d="m 0,0 c -0.371,-1.79 -0.729,-3.579 -1.011,-5.38 -0.277,-1.802 -0.553,-3.6 -0.741,-5.411 -0.203,-1.809 -0.314,-3.624 -0.432,-5.437 -0.106,-1.813 -0.153,-3.63 -0.142,-5.446 l 0.005,-0.952 -0.763,0.581 c -2.031,1.549 -4.023,3.15 -5.939,4.841 -1.925,1.68 -3.806,3.41 -5.635,5.193 -3.617,3.608 -7.027,7.427 -10.06,11.527 3.4,-3.797 6.924,-7.463 10.649,-10.914 1.841,-1.748 3.734,-3.441 5.669,-5.082 1.943,-1.631 3.9,-3.249 5.892,-4.823 l -0.758,-0.37 c 0.015,1.836 0.088,3.671 0.22,5.501 0.119,1.832 0.359,3.653 0.624,5.468 0.28,1.811 0.586,3.619 1.005,5.403 C -1.004,-3.518 -0.552,-1.743 0,0"
       style="fill:#55a3f3;fill-opacity:1;fill-rule:nonzero;stroke:none"
       transform="matrix(1.3333333,0,0,-1.3333333,149.80093,614.61373)"
       clip-path="url(#clipPath190)" />
    <path
       id="path191"
       d="m 0,0 -2.719,9.346 -2.631,9.369 -0.015,0.056 0.004,0.069 c 0.328,4.882 0.765,9.756 1.15,14.633 0.378,4.879 0.825,9.751 1.271,14.623 l 0.664,7.309 0.732,7.303 c 0.478,4.87 1.008,9.734 1.578,14.597 -0.27,-4.888 -0.579,-9.772 -0.939,-14.652 L -1.432,55.332 -2.026,48.018 C -2.418,43.141 -2.811,38.263 -3.271,33.392 -3.725,28.521 -4.127,23.645 -4.639,18.777 l -0.01,0.124 2.369,-9.439 z"
       style="fill:#55a3f3;fill-opacity:1;fill-rule:nonzero;stroke:none"
       transform="matrix(1.3333333,0,0,-1.3333333,289.01773,612.0264)"
       clip-path="url(#clipPath192)" />
    <g
       opacity="0.470001"
       id="g202"
       clip-path="url(#clipPath203)">
      <path
         d="m 0,0 c 6.202,-1.833 12.71,-1.874 19.116,-1.94 6.421,0.003 12.844,0.544 19.115,1.83 6.267,1.278 12.362,3.443 17.893,6.631 2.758,1.598 5.401,3.404 7.808,5.492 2.401,2.092 4.587,4.433 6.47,7 l 0.714,0.972 0.09,-1.197 c 0.252,-3.34 1.406,-6.575 3.086,-9.483 1.693,-2.912 3.94,-5.503 6.518,-7.695 5.159,-4.361 12.084,-6.634 18.908,-6.097 -6.791,-0.806 -13.938,1.244 -19.292,5.636 -2.667,2.183 -5.014,4.785 -6.814,7.752 -1.807,2.956 -2.998,6.33 -3.293,9.815 l 0.804,-0.224 C 67.307,13.205 62.254,8.88 56.616,5.66 50.963,2.447 44.754,0.289 38.405,-0.966 35.232,-1.616 32.017,-2.031 28.792,-2.258 25.569,-2.497 22.337,-2.575 19.111,-2.516 15.885,-2.459 12.664,-2.299 9.453,-1.964 6.248,-1.621 3.047,-1.055 0,0"
         style="fill:#55a3f3;fill-opacity:1;fill-rule:nonzero;stroke:none"
         transform="matrix(1.3333333,0,0,-1.3333333,144.38493,297.63907)"
         clip-path="url(#clipPath193)"
         id="path198" />
      <path
         d="m 0,0 c -1.319,-0.003 -2.637,0.216 -3.927,0.541 -1.282,0.356 -2.527,0.856 -3.717,1.466 -2.383,1.223 -4.493,2.952 -6.258,4.967 -1.747,2.029 -3.163,4.329 -4.211,6.77 -0.523,1.221 -0.977,2.467 -1.361,3.732 -0.352,1.275 -0.672,2.555 -0.875,3.857 0.422,-1.247 0.835,-2.49 1.339,-3.697 0.472,-1.217 0.998,-2.41 1.593,-3.564 1.186,-2.307 2.574,-4.506 4.27,-6.443 1.676,-1.949 3.67,-3.62 5.876,-4.953 C -5.06,1.353 -2.598,0.424 0,0"
         style="fill:#55a3f3;fill-opacity:1;fill-rule:nonzero;stroke:none"
         transform="matrix(1.3333333,0,0,-1.3333333,277.05613,292.73413)"
         clip-path="url(#clipPath194)"
         id="path199" />
      <path
         d="m 0,0 c -1.402,-2.109 -3.224,-3.93 -5.231,-5.493 -2.029,-1.542 -4.248,-2.82 -6.539,-3.925 -4.6,-2.182 -9.467,-3.728 -14.432,-4.843 -2.495,-0.507 -5.021,-0.848 -7.558,-1.06 -2.541,-0.163 -5.095,-0.195 -7.635,0.025 -2.535,0.254 -5.047,0.698 -7.503,1.36 -2.432,0.745 -4.8,1.68 -7.025,2.882 2.324,-0.998 4.703,-1.831 7.149,-2.407 2.449,-0.558 4.935,-0.91 7.435,-1.068 2.504,-0.095 5.008,-0.092 7.506,0.116 2.494,0.237 4.975,0.606 7.426,1.13 4.907,1.016 9.72,2.56 14.317,4.56 2.296,1.005 4.516,2.188 6.571,3.623 2.075,1.41 3.936,3.127 5.519,5.1"
         style="fill:#55a3f3;fill-opacity:1;fill-rule:nonzero;stroke:none"
         transform="matrix(1.3333333,0,0,-1.3333333,228.22613,259.7732)"
         clip-path="url(#clipPath195)"
         id="path200" />
      <path
         d="m 0,0 c 0.347,-1.911 0.458,-3.864 0.434,-5.816 -0.056,-1.952 -0.288,-3.902 -0.679,-5.822 -0.794,-3.841 -2.327,-7.528 -4.418,-10.859 -2.157,-3.288 -4.874,-6.212 -8.035,-8.535 -1.584,-1.154 -3.26,-2.176 -5.012,-3.039 -1.766,-0.833 -3.588,-1.544 -5.471,-2.023 1.812,0.694 3.577,1.489 5.243,2.457 1.68,0.938 3.28,2.013 4.772,3.216 2.991,2.392 5.631,5.229 7.663,8.464 2.1,3.193 3.578,6.775 4.511,10.49 C -0.06,-7.749 0.264,-3.87 0,0"
         style="fill:#55a3f3;fill-opacity:1;fill-rule:nonzero;stroke:none"
         transform="matrix(1.3333333,0,0,-1.3333333,158.76773,323.71853)"
         clip-path="url(#clipPath196)"
         id="path201" />
      <path
         d="m 0,0 c -0.664,-4.104 -2.507,-8.017 -5.052,-11.341 -2.561,-3.311 -5.873,-6.094 -9.673,-7.782 3.395,2.375 6.406,5.161 8.881,8.392 C -3.351,-7.513 -1.426,-3.89 0,0"
         style="fill:#55a3f3;fill-opacity:1;fill-rule:nonzero;stroke:none"
         transform="matrix(1.3333333,0,0,-1.3333333,141.6232,316.6352)"
         clip-path="url(#clipPath197)"
         id="path202" />
    </g>
  </g>
</svg>
